<svg width="46" height="34" viewBox="0 0 46 34" fill="none" xmlns="http://www.w3.org/2000/svg">
<path d="M28.2435 0.244507C27.8121 0.282526 27.362 0.320545 26.9306 0.377573C25.0899 0.586151 23.2996 1.1228 21.6416 1.96296C19.9324 2.81459 18.3787 3.957 17.0473 5.34095C16.9913 5.41698 16.8792 5.455 16.784 5.43599C15.8594 5.2961 14.9234 5.25152 13.99 5.30293C12.0862 5.39815 10.2221 5.8919 8.51424 6.75335C5.21233 8.43379 2.88717 11.0495 1.5369 14.5624C1.04426 15.8642 0.753181 17.2359 0.674071 18.6286C0.674071 18.7236 0.655395 18.7997 0.636719 18.8757V20.3451C0.674071 20.7272 0.730099 21.0903 0.76745 21.4724C0.95421 23.0179 1.38749 24.5063 2.08037 25.9016C3.61927 29.0306 5.98178 31.3212 9.15109 32.7336C10.5984 33.3831 12.1478 33.7648 13.7267 33.8609C13.7865 33.8609 13.8388 33.8685 13.8873 33.8799H29.9038C30.2456 33.8476 30.5799 33.8133 30.9254 33.7658C32.7535 33.5569 34.5309 33.0202 36.1752 32.1804C38.9834 30.7853 41.3447 28.6073 42.9845 25.8997C44.1074 24.1136 44.8598 22.1128 45.1957 20.0201C45.2891 19.3737 45.3451 18.7046 45.4217 18.0545C45.4217 17.9594 45.4403 17.8834 45.459 17.8074V16.298C45.4217 15.8608 45.3656 15.4388 45.3656 15.0396C45.1606 13.1781 44.6332 11.3684 43.8081 9.69412C42.4172 6.83826 40.2662 4.43745 37.6002 2.76516C35.8545 1.63598 33.9033 0.876334 31.8629 0.531549C31.1868 0.417493 30.5313 0.360464 29.8553 0.284427C29.7619 0.284427 29.6872 0.265417 29.5938 0.246408L28.2435 0.244507ZM28.9327 3.46281C32.9032 3.47232 36.2723 5.03299 39.0083 8.12964C40.5575 9.91842 41.6006 12.1016 42.0264 14.4465C42.3065 15.8988 42.3644 17.3873 42.1571 18.8567C41.8023 21.4154 40.8461 23.7041 39.2138 25.7096C37.3171 28.0796 34.6846 29.7221 31.749 30.3669C30.1788 30.7168 28.5602 30.7811 26.968 30.557C24.9229 30.2909 23.0479 29.6046 21.3596 28.3633C20.9116 28.0371 20.4918 27.6727 20.1045 27.2741C17.8149 24.9834 15.5476 22.6738 13.2579 20.3831C12.6958 19.8129 12.6584 19.1817 12.9218 18.6077C13.0594 18.3012 13.2908 18.0483 13.5812 17.8866C13.8717 17.7249 14.2057 17.6631 14.5335 17.7104C14.9257 17.7484 15.2282 17.9784 15.5084 18.2655C17.5721 20.3831 19.6171 22.4647 21.6789 24.5842C23.227 26.1911 25.2621 27.2198 27.4554 27.5041C31.0935 28.0002 34.1881 26.8559 36.644 24.0862C37.9756 22.5787 38.7824 20.7652 39.1204 18.7426C39.606 15.7258 38.915 13.0151 37.0754 10.6294C35.445 8.50983 33.3066 7.19247 30.7181 6.71533C28.0736 6.2401 25.5803 6.75335 23.3112 8.22468C23.2552 8.2627 23.1244 8.28171 23.0665 8.24369C22.2416 7.62245 21.3626 7.07907 20.4407 6.62028C20.4407 6.62028 20.422 6.60128 20.4034 6.56326C21.1237 5.95279 21.91 5.42791 22.7472 4.99878C24.271 4.1568 25.9512 3.64911 27.6795 3.50843C28.0958 3.47638 28.5133 3.46116 28.9308 3.46281H28.9327ZM14.7296 8.52503C17.4469 8.47941 19.9421 9.52303 22.1664 11.6236C23.7613 13.1481 25.2236 14.7335 26.7606 16.3189C27.1921 16.7561 27.2854 17.3112 27.08 17.9024C26.8746 18.4936 26.4039 18.7806 25.8044 18.8757C25.5876 18.9058 25.3668 18.8817 25.1612 18.8055C24.9556 18.7293 24.7712 18.6034 24.6241 18.4385C23.1599 16.9481 21.6976 15.4787 20.2539 13.9712C19.0718 12.7299 17.6655 12.0228 16.0145 11.7167C12.3578 11.0495 8.66365 13.2071 7.35073 16.7371C5.66242 21.2234 8.32561 26.3008 12.9199 27.371C13.8201 27.5801 14.7782 27.5801 15.7157 27.5611C15.9772 27.5421 16.1266 27.6372 16.3133 27.8082C17.2154 28.7074 18.1716 29.6046 19.1091 30.5C19.1651 30.557 19.2398 30.614 19.2959 30.6711C19.1838 30.6711 19.1091 30.6901 19.0344 30.6901H14.7389C12.2606 30.6896 9.85653 29.8289 7.92353 28.2502C5.99054 26.6715 4.64419 24.4691 4.10671 22.0066C2.88717 16.414 6.03781 10.7434 11.4389 9.08391C12.5043 8.74022 13.6123 8.55206 14.7296 8.52503Z" fill="#E6E6E6"/>
</svg>
