<svg width="27" height="27" viewBox="0 0 27 27" fill="none" xmlns="http://www.w3.org/2000/svg">
<path d="M25.7461 12.0134C25.7682 12.2042 25.7857 12.3958 25.7987 12.5883C25.8636 13.6036 25.8636 14.6556 25.7987 15.6709C25.4636 20.8612 21.3877 24.9958 16.2695 25.3347C14.5018 25.4511 12.7283 25.4511 10.9606 25.3347C10.3368 25.2921 9.72342 25.1522 9.14284 24.92C8.51653 24.6631 8.20338 24.5334 8.04313 24.553C7.88411 24.5726 7.65291 24.7426 7.19174 25.0839C6.37705 25.6833 5.35073 26.1163 3.82778 26.0784C3.05835 26.06 2.67424 26.0503 2.50176 25.7567C2.32928 25.4631 2.54335 25.057 2.97272 24.2435C3.56845 23.1157 3.94521 21.8239 3.37395 20.7902C2.38922 19.3125 1.55374 17.5621 1.43141 15.6721C1.36661 14.6456 1.36661 13.616 1.43141 12.5895C1.76658 7.39922 5.84249 3.26583 10.9606 2.92577C12.4551 2.82741 13.9538 2.8123 15.45 2.8805M13.6102 14.4599H13.62M8.72204 14.4599H8.73305" stroke="#C1C1C1" stroke-width="1.5" stroke-linecap="round" stroke-linejoin="round"/>
<path d="M24.4641 2.15381L25.3118 3.00031C25.6558 3.3444 25.849 3.81103 25.849 4.29757C25.849 4.78412 25.6558 5.25075 25.3118 5.59484L20.8738 10.116C20.5246 10.4647 20.0782 10.6997 19.593 10.79L16.8431 11.3882C16.7432 11.4099 16.6393 11.4062 16.5411 11.3775C16.4429 11.3487 16.3535 11.2957 16.2811 11.2234C16.2086 11.1511 16.1555 11.0618 16.1266 10.9636C16.0976 10.8655 16.0937 10.7616 16.1153 10.6616L16.7013 7.92759C16.7916 7.44247 17.0266 6.99601 17.3753 6.64684L21.8695 2.15259C22.2136 1.8086 22.6802 1.61536 23.1668 1.61536C23.6533 1.61536 24.12 1.8086 24.4641 2.15259" stroke="#C1C1C1" stroke-width="1.5" stroke-linecap="round" stroke-linejoin="round"/>
</svg>
