<svg width="23" height="23" viewBox="0 0 23 23" fill="none" xmlns="http://www.w3.org/2000/svg">
<path d="M2.58336 22.2344C2.00394 22.2344 1.52053 22.0407 1.13313 21.6533C0.745738 21.2659 0.55162 20.7821 0.550781 20.2018L0.550781 4.14242C0.550781 3.563 0.744899 3.07959 1.13313 2.6922C1.52137 2.3048 2.00436 2.11068 2.5821 2.10984H13.6607C13.8393 2.10984 13.9885 2.17022 14.1084 2.29096C14.2283 2.41171 14.2887 2.56139 14.2895 2.73999C14.2904 2.9186 14.23 3.06785 14.1084 3.18776C13.9868 3.30767 13.8376 3.36763 13.6607 3.36763H2.58336C2.35696 3.36763 2.17123 3.44016 2.02616 3.58522C1.8811 3.73029 1.80856 3.91602 1.80856 4.14242L1.80856 20.2031C1.80856 20.4286 1.8811 20.6139 2.02616 20.759C2.17123 20.9041 2.35696 20.9766 2.58336 20.9766H18.644C18.8696 20.9766 19.0549 20.9041 19.1999 20.759C19.345 20.6139 19.4175 20.4282 19.4175 20.2018V9.1245C19.4175 8.94589 19.4779 8.79664 19.5986 8.67673C19.7194 8.55682 19.8691 8.49645 20.0477 8.49561C20.2263 8.49477 20.3755 8.55514 20.4954 8.67673C20.6154 8.79831 20.6753 8.94757 20.6753 9.1245V20.2031C20.6753 20.7816 20.4816 21.2646 20.0942 21.652C19.7068 22.0394 19.223 22.2335 18.6427 22.2344H2.58336ZM5.8712 10.2854C5.6926 10.2854 5.54334 10.3458 5.42343 10.4666C5.30352 10.5873 5.24357 10.7366 5.24357 10.9143V17.2032C5.24357 17.3818 5.30394 17.5311 5.42469 17.651C5.54544 17.7709 5.69511 17.8313 5.87372 17.8321C6.05232 17.833 6.20158 17.7726 6.32149 17.651C6.4414 17.5294 6.50093 17.3802 6.50009 17.2032V10.9143C6.50009 10.7357 6.43972 10.5865 6.31898 10.4666C6.19823 10.3458 6.04981 10.2854 5.8712 10.2854ZM10.6118 6.51208C10.4323 6.51208 10.2827 6.57246 10.1628 6.6932C10.0429 6.81395 9.98332 6.96321 9.98415 7.14097V17.2032C9.98415 17.3818 10.0445 17.5311 10.1653 17.651C10.286 17.7709 10.4357 17.8313 10.6143 17.8321C10.7929 17.833 10.9422 17.7726 11.0621 17.651C11.182 17.5294 11.2419 17.3802 11.2419 17.2032V7.14097C11.2419 6.96237 11.1816 6.81311 11.0608 6.6932C10.9401 6.5733 10.7904 6.51292 10.6118 6.51208ZM15.3536 14.0588C15.175 14.0588 15.0258 14.1192 14.9059 14.2399C14.786 14.3607 14.7256 14.5099 14.7247 14.6877V17.2032C14.7247 17.3818 14.7851 17.5311 14.9059 17.651C15.0266 17.7718 15.1763 17.8321 15.3549 17.8321C15.5335 17.8321 15.6828 17.7718 15.8027 17.651C15.9226 17.5303 15.9825 17.381 15.9825 17.2032V14.6877C15.9825 14.5091 15.9221 14.3598 15.8014 14.2399C15.6807 14.12 15.5314 14.0596 15.3536 14.0588ZM18.1597 4.62541H16.2731C16.0945 4.62541 15.9452 4.56504 15.8253 4.44429C15.7054 4.32354 15.645 4.17386 15.6442 3.99526C15.6433 3.81665 15.7037 3.6674 15.8253 3.54749C15.9469 3.42758 16.0961 3.36763 16.2731 3.36763H18.1597V1.48095C18.1597 1.30235 18.2201 1.15309 18.3409 1.03318C18.4616 0.913272 18.6113 0.852898 18.7899 0.852059C18.9685 0.851221 19.1178 0.911595 19.2377 1.03318C19.3576 1.15477 19.4175 1.30402 19.4175 1.48095V3.36763H21.3042C21.4828 3.36763 21.6321 3.428 21.752 3.54875C21.8719 3.66949 21.9323 3.81917 21.9331 3.99778C21.9339 4.17638 21.8736 4.32564 21.752 4.44555C21.6304 4.56545 21.4811 4.62541 21.3042 4.62541H19.4175V6.51208C19.4175 6.69069 19.3572 6.83995 19.2364 6.95985C19.1157 7.07976 18.966 7.14014 18.7874 7.14097C18.6088 7.14181 18.4595 7.08144 18.3396 6.95985C18.2197 6.83827 18.1597 6.68901 18.1597 6.51208V4.62541Z" fill="#C1C1C1" stroke="#C1C1C1"/>
</svg>
