<svg width="54" height="54" viewBox="0 0 54 54" fill="none" xmlns="http://www.w3.org/2000/svg">
<circle cx="27.1448" cy="26.9381" r="26.2229" stroke="#C1C1C1"/>
<path fill-rule="evenodd" clip-rule="evenodd" d="M37.5756 26.2901C37.7473 26.462 37.8437 26.6951 37.8437 26.9381C37.8437 27.1811 37.7473 27.4142 37.5756 27.5862L30.2392 34.9225C30.1552 35.0126 30.054 35.0849 29.9415 35.135C29.829 35.1851 29.7076 35.2121 29.5844 35.2143C29.4613 35.2164 29.339 35.1938 29.2248 35.1477C29.1106 35.1015 29.0069 35.0329 28.9198 34.9458C28.8327 34.8587 28.7641 34.755 28.7179 34.6408C28.6718 34.5266 28.6492 34.4043 28.6513 34.2812C28.6535 34.1581 28.6805 34.0366 28.7306 33.9241C28.7807 33.8116 28.853 33.7104 28.9431 33.6264L34.7144 27.8552L17.3638 27.8552C17.1206 27.8552 16.8874 27.7585 16.7154 27.5866C16.5434 27.4146 16.4468 27.1813 16.4468 26.9381C16.4468 26.6949 16.5434 26.4616 16.7154 26.2897C16.8874 26.1177 17.1206 26.0211 17.3638 26.0211L34.7144 26.0211L28.9431 20.2498C28.853 20.1658 28.7807 20.0646 28.7306 19.9521C28.6805 19.8396 28.6535 19.7182 28.6513 19.595C28.6492 19.4719 28.6718 19.3496 28.7179 19.2354C28.7641 19.1212 28.8327 19.0175 28.9198 18.9304C29.0069 18.8433 29.1106 18.7747 29.2248 18.7285C29.339 18.6824 29.4613 18.6598 29.5844 18.6619C29.7076 18.6641 29.829 18.6911 29.9415 18.7412C30.054 18.7913 30.1552 18.8636 30.2392 18.9537L37.5756 26.2901Z" fill="#C1C1C1"/>
</svg>
