<svg width="27" height="27" viewBox="0 0 27 27" fill="none" xmlns="http://www.w3.org/2000/svg">
<path d="M6.00627 1.40846C6.00645 1.22302 5.95421 1.0413 5.85557 0.884274C5.75693 0.727242 5.61592 0.601292 5.44878 0.520948C5.28165 0.440604 5.09521 0.409139 4.91097 0.430183C4.72673 0.451227 4.55219 0.523923 4.40748 0.639885C2.68933 2.01571 1.75418 3.22104 1.26235 4.27029C0.908188 5.01402 0.736007 5.83132 0.76002 6.65471C0.76002 7.89545 1.38564 8.98929 2.33914 9.63852C2.07702 9.85987 1.85284 10.1226 1.67549 10.4163C1.05119 11.4262 0.76002 12.9699 0.76002 15.1864C0.76002 17.4318 1.06168 20.1284 1.55352 22.282C1.79747 23.3522 2.10044 24.3398 2.46112 25.0809C2.6408 25.4494 2.85983 25.8088 3.13001 26.0908C3.4002 26.3675 3.81596 26.6626 4.36682 26.6626C4.91767 26.6626 5.33344 26.3675 5.60231 26.0908C5.87607 25.7907 6.10171 25.45 6.27121 25.0809C6.6332 24.3385 6.93617 23.3522 7.18012 22.2807C7.69218 19.9498 7.95813 17.5715 7.97362 15.1851C7.97362 12.9686 7.68245 11.4262 7.05814 10.4163C6.88079 10.1226 6.65662 9.85987 6.39449 9.63852C6.88114 9.30771 7.27945 8.86286 7.5547 8.34277C7.82995 7.82268 7.97377 7.24315 7.97362 6.65471C7.97362 5.43889 7.40177 4.59031 6.96634 3.9424L6.9283 3.886C6.41679 3.12398 6.00627 2.49706 6.00627 1.40846ZM2.72736 6.65471C2.72736 6.26387 2.72736 5.78121 3.04476 5.10576C3.26511 4.63228 3.65989 4.03159 4.37206 3.3076C4.6252 3.98568 4.97932 4.51424 5.27967 4.96017L5.2954 4.98378C5.76363 5.68022 6.00627 6.07894 6.00627 6.65471C6.00627 7.08952 5.83354 7.50652 5.52609 7.81398C5.21863 8.12144 4.80163 8.29416 4.36682 8.29416C3.93201 8.29416 3.51501 8.12144 3.20755 7.81398C2.90009 7.50652 2.72736 7.08952 2.72736 6.65471ZM2.72736 15.1864C2.72736 13.0578 3.02378 11.977 3.34905 11.4498C3.448 11.2729 3.59605 11.1285 3.7753 11.034C3.96127 10.952 4.16377 10.9142 4.36682 10.9238C4.62913 10.9238 4.81668 10.9645 4.95833 11.034C5.08949 11.097 5.23638 11.2111 5.38459 11.4498C5.70986 11.977 6.00627 13.0578 6.00627 15.1864C6.00627 17.2862 5.72035 19.8359 5.26262 21.8439C5.03178 22.8538 4.76947 23.6735 4.50322 24.2192C4.46091 24.3061 4.41541 24.3914 4.36682 24.4749C4.31822 24.3914 4.27273 24.3061 4.23042 24.2192C3.96417 23.6735 3.70186 22.8525 3.47102 21.8439C2.99281 19.6566 2.74358 17.4254 2.72736 15.1864ZM9.26419 16.2645C9.89541 16.542 10.5664 16.7181 11.2525 16.7865V13.8683C11.2525 13.3085 11.3628 12.7542 11.577 12.2371C11.7912 11.7199 12.1052 11.25 12.501 10.8542C12.8968 10.4584 13.3667 10.1444 13.8839 9.9302C14.401 9.71598 14.9553 9.60573 15.5151 9.60573H18.4333C18.3256 8.53218 17.9547 7.5018 17.3534 6.60593C16.7522 5.71005 15.9391 4.97637 14.9864 4.46993C14.0338 3.96349 12.9708 3.69994 11.8919 3.70263C10.813 3.70533 9.75136 3.97419 8.80121 4.48539C8.59706 4.05477 8.35662 3.64233 8.08248 3.25252L8.0169 3.15546L7.78213 2.79872C9.03158 2.10762 10.4346 1.74141 11.8624 1.73371C13.2902 1.726 14.6971 2.07704 15.954 2.75461C17.2108 3.43218 18.2773 4.41458 19.0557 5.61164C19.834 6.8087 20.2992 8.18208 20.4085 9.60573H22.7287C23.2885 9.60573 23.8428 9.71598 24.3599 9.9302C24.8771 10.1444 25.347 10.4584 25.7428 10.8542C26.1386 11.25 26.4526 11.7199 26.6668 12.2371C26.881 12.7542 26.9913 13.3085 26.9913 13.8683V21.0819C26.9913 21.6417 26.881 22.196 26.6668 22.7131C26.4526 23.2303 26.1386 23.7002 25.7428 24.096C25.347 24.4918 24.8771 24.8058 24.3599 25.02C23.8428 25.2342 23.2885 25.3445 22.7287 25.3445H15.5151C14.3846 25.3445 13.3004 24.8954 12.501 24.096C11.7016 23.2966 11.2525 22.2124 11.2525 21.0819V18.7617C10.528 18.7065 9.81354 18.5588 9.12648 18.3224C9.19206 17.6272 9.23927 16.9347 9.26419 16.2645ZM22.7287 11.5731H20.3338C20.0549 13.3597 19.2156 15.0115 17.937 16.2902C16.6583 17.5688 15.0065 18.4081 13.2199 18.687V21.0819C13.2199 22.3489 14.2481 23.3771 15.5151 23.3771H22.7287C23.3374 23.3771 23.9212 23.1353 24.3517 22.7049C24.7821 22.2744 25.0239 21.6906 25.0239 21.0819V13.8683C25.0239 13.2596 24.7821 12.6758 24.3517 12.2453C23.9212 11.8149 23.3374 11.5731 22.7287 11.5731ZM13.2199 16.6882C14.4794 16.4296 15.6354 15.8071 16.5447 14.8979C17.4539 13.9886 18.0764 12.8326 18.335 11.5731H15.5151C14.9064 11.5731 14.3226 11.8149 13.8921 12.2453C13.4617 12.6758 13.2199 13.2596 13.2199 13.8683V16.6882Z" fill="#C1C1C1"/>
</svg>
