<svg width="25" height="27" viewBox="0 0 25 27" fill="none" xmlns="http://www.w3.org/2000/svg">
<path d="M17.0382 21.2383C17.0382 21.4993 16.9346 21.7496 16.75 21.9341C16.5655 22.1186 16.3152 22.2223 16.0543 22.2223C15.7933 22.2223 15.543 22.1186 15.3585 21.9341C15.174 21.7496 15.0703 21.4993 15.0703 21.2383C15.0703 20.9774 15.174 20.7271 15.3585 20.5426C15.543 20.3581 15.7933 20.2544 16.0543 20.2544C16.3152 20.2544 16.5655 20.3581 16.75 20.5426C16.9346 20.7271 17.0382 20.9774 17.0382 21.2383Z" fill="#C1C1C1"/>
<path fill-rule="evenodd" clip-rule="evenodd" d="M16.0566 20.9833C15.9889 20.9833 15.924 21.0102 15.8762 21.0581C15.8283 21.1059 15.8015 21.1708 15.8015 21.2384C15.8015 21.3061 15.8283 21.371 15.8762 21.4188C15.924 21.4667 15.9889 21.4935 16.0566 21.4935C16.1242 21.4935 16.1891 21.4667 16.2369 21.4188C16.2848 21.371 16.3117 21.3061 16.3117 21.2384C16.3117 21.1708 16.2848 21.1059 16.2369 21.0581C16.1891 21.0102 16.1242 20.9833 16.0566 20.9833ZM14.3438 21.2384C14.3437 20.7842 14.5242 20.3485 14.8454 20.0273C15.1666 19.7061 15.6023 19.5256 16.0566 19.5256C16.5108 19.5256 16.9465 19.7061 17.2677 20.0273C17.5889 20.3485 17.7694 20.7842 17.7694 21.2384C17.7694 21.6927 17.5889 22.1284 17.2677 22.4496C16.9465 22.7708 16.5108 22.9513 16.0566 22.9513C15.6023 22.9513 15.1666 22.7708 14.8454 22.4496C14.5242 22.1284 14.3438 21.6927 14.3438 21.2384Z" fill="#C1C1C1"/>
<path fill-rule="evenodd" clip-rule="evenodd" d="M7.30859 4.27355C7.30859 3.30702 7.69254 2.38009 8.37598 1.69666C9.05941 1.01322 9.98635 0.629272 10.9529 0.629272H21.1568C22.1234 0.629272 23.0503 1.01322 23.7337 1.69666C24.4172 2.38009 24.8011 3.30702 24.8011 4.27355V23.2238C24.8011 24.1903 24.4172 25.1172 23.7337 25.8007C23.0503 26.4841 22.1234 26.868 21.1568 26.868H10.224C9.4508 26.868 8.70925 26.5609 8.1625 26.0141C7.61575 25.4674 7.30859 24.7258 7.30859 23.9526V21.7661C7.30859 21.5728 7.38538 21.3874 7.52207 21.2507C7.65876 21.114 7.84414 21.0372 8.03745 21.0372C8.23075 21.0372 8.41614 21.114 8.55283 21.2507C8.68951 21.3874 8.7663 21.5728 8.7663 21.7661V23.9526C8.7663 24.3392 8.91988 24.71 9.19326 24.9834C9.46663 25.2568 9.8374 25.4103 10.224 25.4103H21.1568C21.7367 25.4103 22.2929 25.18 22.703 24.7699C23.113 24.3598 23.3434 23.8037 23.3434 23.2238V4.27355C23.3434 3.69363 23.113 3.13747 22.703 2.72741C22.2929 2.31735 21.7367 2.08698 21.1568 2.08698H10.9529C10.373 2.08698 9.81679 2.31735 9.40673 2.72741C8.99667 3.13747 8.7663 3.69363 8.7663 4.27355V9.0111C8.7663 9.20441 8.68951 9.38979 8.55283 9.52648C8.41614 9.66317 8.23075 9.73996 8.03745 9.73996C7.84414 9.73996 7.65876 9.66317 7.52207 9.52648C7.38538 9.38979 7.30859 9.20441 7.30859 9.0111V4.27355Z" fill="#C1C1C1"/>
<path fill-rule="evenodd" clip-rule="evenodd" d="M2.77898 17.823C3.68275 18.3332 4.98303 18.67 6.45823 18.67C7.93344 18.67 9.23371 18.3318 10.1389 17.823C11.0675 17.3012 11.4407 16.6933 11.4407 16.1875C11.4407 15.6817 11.0675 15.0723 10.1389 14.5505C9.23517 14.0403 7.93489 13.705 6.45823 13.705C4.98157 13.705 3.68421 14.0403 2.77898 14.5505C1.85041 15.0723 1.47724 15.6802 1.47724 16.1875C1.47724 16.6933 1.85041 17.3012 2.77898 17.823ZM2.0647 19.0942C0.923311 18.4528 0.0195312 17.4542 0.0195312 16.1875C0.0195312 14.9193 0.924769 13.9208 2.06324 13.2808C3.22503 12.6263 4.78041 12.2458 6.45823 12.2458C8.13606 12.2458 9.69289 12.6263 10.8547 13.2808C11.9917 13.9208 12.8984 14.9193 12.8984 16.1875C12.8984 17.4557 11.9932 18.4528 10.8547 19.0942C9.69289 19.7472 8.13751 20.1291 6.45823 20.1291C4.78187 20.1291 3.22503 19.7472 2.06324 19.0942" fill="#C1C1C1"/>
<path fill-rule="evenodd" clip-rule="evenodd" d="M6.45906 10.1044C6.65236 10.1044 6.83775 10.1812 6.97444 10.3178C7.11112 10.4545 7.18791 10.6399 7.18791 10.8332V12.9761C7.18791 13.1694 7.11112 13.3547 6.97444 13.4914C6.83775 13.6281 6.65236 13.7049 6.45906 13.7049C6.26575 13.7049 6.08037 13.6281 5.94368 13.4914C5.80699 13.3547 5.7302 13.1694 5.7302 12.9761V10.8332C5.7302 10.6399 5.80699 10.4545 5.94368 10.3178C6.08037 10.1812 6.26575 10.1044 6.45906 10.1044ZM9.45757 10.4761C9.64695 10.5141 9.8135 10.6257 9.92065 10.7864C10.0278 10.9471 10.0668 11.1438 10.029 11.3332L9.67331 13.1175C9.63542 13.3071 9.52375 13.4739 9.36287 13.5812C9.20199 13.6885 9.00508 13.7275 8.81545 13.6896C8.62581 13.6517 8.459 13.5401 8.3517 13.3792C8.2444 13.2183 8.20541 13.0214 8.24329 12.8317L8.60043 11.0475C8.63843 10.8581 8.75004 10.6916 8.91075 10.5844C9.07147 10.4773 9.26814 10.4383 9.45757 10.4761ZM3.46055 10.4761C3.27117 10.5141 3.10461 10.6257 2.99747 10.7864C2.89033 10.9471 2.85136 11.1438 2.88913 11.3332L3.24627 13.1175C3.26214 13.214 3.29728 13.3063 3.3496 13.389C3.40192 13.4717 3.47034 13.5429 3.55079 13.5986C3.63124 13.6542 3.72207 13.6931 3.81787 13.7129C3.91367 13.7328 4.01248 13.7331 4.1084 13.7139C4.20433 13.6947 4.29541 13.6564 4.37622 13.6013C4.45703 13.5461 4.52592 13.4753 4.57877 13.393C4.63163 13.3107 4.66737 13.2186 4.68387 13.1221C4.70037 13.0257 4.6973 12.927 4.67482 12.8317L4.3206 11.0475C4.28261 10.8581 4.17099 10.6916 4.01028 10.5844C3.84956 10.4773 3.65289 10.4383 3.46346 10.4761M0.374579 11.635C0.292247 11.6842 0.220433 11.7491 0.163251 11.8261C0.10607 11.9031 0.0646459 11.9906 0.0413536 12.0836C0.0180613 12.1767 0.0133589 12.2734 0.0275157 12.3683C0.0416726 12.4631 0.0744104 12.5542 0.123853 12.6364L1.19527 14.4206C1.24363 14.5045 1.30823 14.5779 1.38527 14.6366C1.46232 14.6952 1.55028 14.7379 1.64401 14.7622C1.73774 14.7864 1.83537 14.7918 1.93119 14.7779C2.02701 14.764 2.11911 14.7312 2.2021 14.6813C2.28509 14.6314 2.35731 14.5655 2.41454 14.4874C2.47178 14.4093 2.51288 14.3206 2.53545 14.2265C2.55802 14.1323 2.56161 14.0346 2.54599 13.939C2.53038 13.8435 2.49589 13.752 2.44453 13.6699L1.37602 11.8857C1.27645 11.7201 1.11517 11.6007 0.927644 11.554C0.740119 11.5073 0.541706 11.5369 0.376036 11.6364M12.545 11.635C12.6273 11.6842 12.6991 11.7491 12.7563 11.8261C12.8135 11.9031 12.8549 11.9906 12.8782 12.0836C12.9015 12.1767 12.9062 12.2734 12.8921 12.3683C12.8779 12.4631 12.8452 12.5542 12.7957 12.6364L11.7243 14.4206C11.6759 14.5045 11.6113 14.5779 11.5343 14.6366C11.4573 14.6952 11.3693 14.7379 11.2756 14.7622C11.1818 14.7864 11.0842 14.7918 10.9884 14.7779C10.8926 14.764 10.8005 14.7312 10.7175 14.6813C10.6345 14.6314 10.5623 14.5655 10.505 14.4874C10.4478 14.4093 10.4067 14.3206 10.3841 14.2265C10.3616 14.1323 10.358 14.0346 10.3736 13.939C10.3892 13.8435 10.4237 13.752 10.475 13.6699L11.545 11.8857C11.6446 11.7201 11.8059 11.6007 11.9934 11.554C12.1809 11.5073 12.3793 11.5354 12.545 11.635Z" fill="#C1C1C1"/>
<path d="M6.46667 14.3318C6.94993 14.3318 7.4134 14.5238 7.75511 14.8655C8.09683 15.2072 8.2888 15.6707 8.2888 16.1539C8.2888 16.6372 8.09683 17.1007 7.75511 17.4424C7.4134 17.7841 6.94993 17.9761 6.46667 17.9761C5.98341 17.9761 5.51994 17.7841 5.17822 17.4424C4.83651 17.1007 4.64453 16.6372 4.64453 16.1539C4.64453 15.6707 4.83651 15.2072 5.17822 14.8655C5.51994 14.5238 5.98341 14.3318 6.46667 14.3318Z" fill="#C1C1C1"/>
<path fill-rule="evenodd" clip-rule="evenodd" d="M5.37177 16.154C5.37177 16.444 5.48696 16.7221 5.69199 16.9271C5.89702 17.1321 6.1751 17.2473 6.46505 17.2473C6.75501 17.2473 7.03309 17.1321 7.23812 16.9271C7.44315 16.7221 7.55834 16.444 7.55834 16.154C7.55834 15.8641 7.44315 15.586 7.23812 15.381C7.03309 15.1759 6.75501 15.0607 6.46505 15.0607C6.1751 15.0607 5.89702 15.1759 5.69199 15.381C5.48696 15.586 5.37177 15.8641 5.37177 16.154ZM6.46505 18.705C6.13005 18.705 5.79833 18.639 5.48883 18.5108C5.17933 18.3826 4.89811 18.1947 4.66123 17.9578C4.42435 17.721 4.23644 17.4397 4.10825 17.1302C3.98005 16.8207 3.91406 16.489 3.91406 16.154C3.91406 15.819 3.98005 15.4873 4.10825 15.1778C4.23644 14.8683 4.42435 14.5871 4.66123 14.3502C4.89811 14.1133 5.17933 13.9254 5.48883 13.7972C5.79833 13.669 6.13005 13.603 6.46505 13.603C7.14162 13.603 7.79047 13.8718 8.26888 14.3502C8.74728 14.8286 9.01605 15.4775 9.01605 16.154C9.01605 16.8306 8.74728 17.4794 8.26888 17.9578C7.79047 18.4362 7.14162 18.705 6.46505 18.705Z" fill="#C1C1C1"/>
</svg>
