<svg width="27" height="33" viewBox="0 0 27 33" fill="none" xmlns="http://www.w3.org/2000/svg">
<path fill-rule="evenodd" clip-rule="evenodd" d="M19.8345 16.0593C19.4053 16.0443 18.992 16.0712 18.6066 16.1331C18.7149 15.2543 19.0765 14.1751 20.3571 14.22C21.7748 14.2699 21.9735 15.6144 21.9784 16.5261C21.3804 16.2578 20.6402 16.0882 19.8345 16.0593ZM25.8967 6.51488C25.6593 5.24117 24.9052 4.61377 24.2227 4.36741C23.4875 4.1001 21.9953 3.82382 20.1206 3.60139C18.6125 3.42385 16.8401 3.43788 15.7692 3.47079C15.641 2.58707 15.0241 1.78012 14.3326 1.50083C12.4927 0.756754 9.64832 0.936259 8.91911 1.14173C8.33891 1.30431 7.69615 1.63848 7.33849 2.15215C7.09906 2.49527 6.94406 2.93616 6.94307 3.55058C6.94307 3.89868 6.95302 4.71757 6.96097 5.44569C6.96991 6.17581 6.97984 6.82906 6.97984 6.83405C6.97984 7.48337 6.45427 8.01304 5.80354 8.01404H2.82012C2.1833 8.01404 1.69648 8.12178 1.32592 8.29035C0.95336 8.46091 0.690086 8.6893 0.489403 8.95961C0.0910163 9.49722 0.0214913 10.1595 0.0234782 10.8357C0.0234782 10.8357 0.0294392 11.3893 0.162566 12.4586C0.272842 13.2865 1.16697 19.0705 2.0164 20.829C2.34524 21.5132 2.56481 21.7985 3.21157 22.0997C4.65311 22.7201 7.9465 23.4094 9.48938 23.6068C11.0303 23.8043 11.9969 24.2203 12.5731 23.0074C12.5751 23.0044 12.6884 22.7051 12.8444 22.2673C13.3451 20.7452 13.4146 19.3947 13.4146 18.4182C13.4146 18.3185 13.5597 18.3145 13.5597 18.4182C13.5597 19.1074 13.4285 21.5491 15.2655 22.2044C15.9907 22.4628 17.4948 22.6922 19.0228 22.8727C20.4047 23.0323 21.4082 23.5779 21.4082 27.1377C21.4082 29.3031 20.9551 29.6003 18.5867 29.6003C16.6663 29.6003 15.9341 29.6502 15.9341 28.1192C15.9341 26.8814 17.1541 27.011 18.0572 27.011C18.4615 27.011 18.1684 26.7098 18.1684 25.9458C18.1684 25.1858 18.6413 24.7468 18.1943 24.7359C15.0688 24.6491 13.2298 24.7319 13.2298 28.6558C13.2298 32.2186 14.5879 32.8799 19.0228 32.8799C22.501 32.8799 23.727 32.7652 25.1625 28.2927C25.4467 27.409 26.1342 24.7149 26.5494 20.1896C26.8127 17.329 26.3021 8.69426 25.8967 6.51488ZM2.68006 7.14429H2.68205H5.66547C5.83635 7.14429 5.97445 7.00361 5.97445 6.83405C5.97445 6.83405 5.93865 4.26571 5.93865 3.55155V3.54254C5.93865 2.95606 6.06086 2.44541 6.27446 2.01652L6.37681 1.82503C6.36489 1.82603 6.35395 1.832 6.34203 1.84297L0.545046 7.61508C0.534117 7.62406 0.526192 7.63704 0.523211 7.64901C0.643422 7.58916 0.807352 7.50833 0.830201 7.49836C1.33489 7.26895 1.94687 7.14429 2.68006 7.14429Z" fill="#D9D9D9"/>
</svg>
