<svg width="25" height="36" viewBox="0 0 25 36" fill="none" xmlns="http://www.w3.org/2000/svg">
<path fill-rule="evenodd" clip-rule="evenodd" d="M11.4139 2.96295H7.38219C5.15556 2.96295 3.35052 4.76799 3.35052 6.99461C3.35052 9.22124 5.15556 11.0263 7.38219 11.0263H11.4139V2.96295ZM11.4139 0.229614H14.1472H18.1789C21.9152 0.229614 24.9437 3.25839 24.9437 6.99461C24.9437 9.19943 23.8892 11.1579 22.2566 12.3929C23.8892 13.628 24.9437 15.5865 24.9437 17.7913C24.9437 21.5275 21.9152 24.5563 18.1789 24.5563C16.6682 24.5563 15.2731 24.0611 14.1472 23.2242V24.5563V28.588C14.1472 32.3242 11.1184 35.353 7.38219 35.353C3.64597 35.353 0.617188 32.3242 0.617188 28.588C0.617188 26.383 1.67193 24.4247 3.30438 23.1896C1.67193 21.9546 0.617188 19.9961 0.617188 17.7913C0.617188 15.5865 1.67195 13.628 3.30444 12.393C1.67195 11.1579 0.617188 9.19943 0.617188 6.99461C0.617188 3.25839 3.64597 0.229614 7.38219 0.229614H11.4139ZM14.1472 2.96295V11.0263H18.1789C20.4056 11.0263 22.2104 9.22124 22.2104 6.99461C22.2104 4.76799 20.4056 2.96295 18.1789 2.96295H14.1472ZM7.38219 21.8229H11.4139V17.8017V17.7913V17.7809V13.7596H7.38219C5.15556 13.7596 3.35052 15.5647 3.35052 17.7913C3.35052 20.0126 5.14692 21.8143 7.3662 21.8229L7.38219 21.8229ZM3.35052 28.588C3.35052 26.3666 5.14692 24.5649 7.3662 24.5563L7.38219 24.5563H11.4139V28.588C11.4139 30.8145 9.60882 32.6196 7.38219 32.6196C5.15556 32.6196 3.35052 30.8145 3.35052 28.588ZM14.1472 17.7833C14.1515 15.5603 15.9549 13.7596 18.1789 13.7596C20.4056 13.7596 22.2104 15.5647 22.2104 17.7913C22.2104 20.0179 20.4056 21.823 18.1789 21.823C15.9549 21.823 14.1515 20.0223 14.1472 17.7993V17.7833Z" fill="#E6E6E6"/>
</svg>
