<svg width="25" height="27" viewBox="0 0 25 27" fill="none" xmlns="http://www.w3.org/2000/svg">
<path d="M12.4791 3.64382C14.801 3.64382 16.9915 4.14238 19.0505 5.13948C21.1096 6.13658 22.8291 7.5766 24.2091 9.45953C24.3624 9.65668 24.4119 9.83191 24.3576 9.98525C24.3033 10.1386 24.21 10.27 24.0776 10.3795C23.9453 10.4891 23.792 10.5386 23.6176 10.528C23.4433 10.5175 23.29 10.4242 23.1576 10.2481C21.9529 8.53953 20.4033 7.23095 18.509 6.32234C16.6147 5.41373 14.6047 4.95899 12.4791 4.95811C10.3534 4.95723 8.36012 5.41198 6.49909 6.32234C4.63806 7.2327 3.09378 8.54129 1.86623 10.2481C1.73481 10.4452 1.58147 10.5548 1.40623 10.5767C1.231 10.5986 1.07766 10.5548 0.946234 10.4452C0.792901 10.3357 0.699587 10.199 0.666291 10.0352C0.632996 9.87134 0.682501 9.70136 0.814806 9.52525C2.1729 7.66334 3.87621 6.21763 5.92475 5.18811C7.97328 4.15859 10.1581 3.64382 12.4791 3.64382ZM12.4791 6.73239C15.4362 6.73239 17.9772 7.71811 20.1019 9.68953C22.2267 11.661 23.2891 14.1033 23.2891 17.0167C23.2891 18.1119 22.9005 19.0267 22.1233 19.7609C21.3461 20.4951 20.3985 20.8618 19.2805 20.861C18.1625 20.8601 17.2044 20.4934 16.4062 19.7609C15.608 19.0284 15.208 18.1137 15.2062 17.0167C15.2062 16.2938 14.9381 15.6857 14.4019 15.1924C13.8657 14.6991 13.2247 14.4529 12.4791 14.4538C11.7334 14.4547 11.0925 14.7013 10.5563 15.1938C10.0201 15.6862 9.75194 16.2938 9.75194 17.0167C9.75194 19.1414 10.3819 20.9157 11.6419 22.3395C12.9018 23.7633 14.5281 24.76 16.5205 25.3295C16.7177 25.3952 16.8491 25.5048 16.9148 25.6581C16.9805 25.8114 16.9915 25.9757 16.9477 26.1509C16.9038 26.3043 16.8162 26.4357 16.6848 26.5452C16.5534 26.6548 16.3891 26.6876 16.1919 26.6438C13.9138 26.0743 12.0519 24.9405 10.6062 23.2424C9.16051 21.5444 8.43766 19.4691 8.43766 17.0167C8.43766 15.9214 8.83194 15.0014 9.62051 14.2567C10.4091 13.5119 11.3619 13.1395 12.4791 13.1395C13.5962 13.1395 14.5491 13.5119 15.3377 14.2567C16.1262 15.0014 16.5205 15.9214 16.5205 17.0167C16.5205 17.7395 16.7943 18.3476 17.3419 18.8409C17.8896 19.3342 18.5357 19.5804 19.2805 19.5795C20.0253 19.5786 20.6605 19.3324 21.1862 18.8409C21.7119 18.3494 21.9748 17.7413 21.9748 17.0167C21.9748 14.4757 21.0438 12.34 19.1819 10.6095C17.32 8.87906 15.0967 8.01382 12.5119 8.01382C9.92718 8.01382 7.70385 8.87906 5.84195 10.6095C3.98004 12.34 3.04909 14.4648 3.04909 16.9838C3.04909 17.5095 3.09859 18.1667 3.1976 18.9552C3.29661 19.7438 3.53187 20.6638 3.90338 21.7152C3.96909 21.9124 3.96383 22.0876 3.8876 22.241C3.81138 22.3943 3.6852 22.5038 3.50909 22.5695C3.33298 22.6352 3.16343 22.63 3.00046 22.5538C2.83749 22.4775 2.72227 22.3514 2.6548 22.1752C2.32623 21.321 2.09098 20.4724 1.94903 19.6295C1.80709 18.7866 1.73568 17.9156 1.7348 17.0167C1.7348 14.1033 2.79193 11.661 4.90617 9.68953C7.02042 7.71811 9.54472 6.73239 12.4791 6.73239ZM12.4791 0.423828C13.881 0.423828 15.25 0.593371 16.5862 0.932456C17.9224 1.27154 19.2148 1.75914 20.4634 2.39525C20.6605 2.50478 20.7757 2.63621 20.809 2.78954C20.8423 2.94287 20.8257 3.09621 20.7591 3.24954C20.6925 3.40287 20.583 3.52335 20.4305 3.61097C20.2781 3.69859 20.0919 3.68763 19.8719 3.57811C18.711 2.98668 17.5115 2.53238 16.2734 2.2152C15.0354 1.89802 13.7706 1.73899 12.4791 1.73811C11.2086 1.73811 9.96004 1.88619 8.73337 2.18234C7.50671 2.47849 6.3348 2.94375 5.21766 3.57811C5.04242 3.68763 4.86718 3.71523 4.69195 3.66091C4.51671 3.60659 4.38528 3.49137 4.29766 3.31525C4.21004 3.13914 4.18814 2.98055 4.23195 2.83948C4.27576 2.69842 4.38528 2.57225 4.56052 2.46097C5.78718 1.80383 7.06861 1.30002 8.4048 0.949542C9.74099 0.599066 11.0991 0.423828 12.4791 0.423828ZM12.4791 9.91953C14.5162 9.91953 16.2686 10.6043 17.7362 11.9738C19.2038 13.3432 19.9377 15.0242 19.9377 17.0167C19.9377 17.2138 19.8776 17.3728 19.7576 17.4938C19.6376 17.6147 19.4785 17.6747 19.2805 17.6738C19.1053 17.6738 18.9519 17.6138 18.8205 17.4938C18.6891 17.3737 18.6234 17.2147 18.6234 17.0167C18.6234 15.3738 18.0153 13.9995 16.7991 12.8938C15.583 11.788 14.143 11.2347 12.4791 11.2338C10.8152 11.2329 9.38613 11.7863 8.19189 12.8938C6.99764 14.0013 6.40052 15.3756 6.40052 17.0167C6.40052 18.791 6.70718 20.2971 7.32052 21.5352C7.93385 22.7732 8.83194 24.0161 10.0148 25.2638C10.1462 25.3952 10.2119 25.5486 10.2119 25.7238C10.2119 25.899 10.1462 26.0524 10.0148 26.1838C9.88337 26.3152 9.73004 26.3809 9.5548 26.3809C9.37956 26.3809 9.22623 26.3152 9.0948 26.1838C7.80242 24.8257 6.81145 23.4405 6.12189 22.028C5.43233 20.6156 5.08711 18.9452 5.08623 17.0167C5.08623 15.0233 5.80909 13.3419 7.2548 11.9724C8.70051 10.603 10.4419 9.91866 12.4791 9.91953ZM12.4462 16.3595C12.6434 16.3595 12.8024 16.4252 12.9233 16.5567C13.0442 16.6881 13.1042 16.8414 13.1034 17.0167C13.1034 18.6595 13.6948 20.0067 14.8777 21.0581C16.0605 22.1095 17.4405 22.6352 19.0177 22.6352C19.1491 22.6352 19.3353 22.6243 19.5762 22.6024C19.8172 22.5805 20.0691 22.5476 20.3319 22.5038C20.5291 22.46 20.6991 22.4876 20.8419 22.5866C20.9847 22.6856 21.0776 22.8333 21.1205 23.0295C21.1643 23.2048 21.1315 23.3581 21.0219 23.4895C20.9124 23.621 20.77 23.7086 20.5948 23.7524C20.2005 23.8619 19.8557 23.9224 19.5605 23.9338C19.2652 23.9451 19.0842 23.9504 19.0177 23.9495C17.0681 23.9495 15.3758 23.2924 13.9406 21.9781C12.5054 20.6638 11.7882 19.01 11.7891 17.0167C11.7891 16.8414 11.8495 16.6881 11.9705 16.5567C12.0914 16.4252 12.25 16.3595 12.4462 16.3595Z" fill="#C1C1C1"/>
</svg>
