<svg width="40" height="34" viewBox="0 0 40 34" fill="none" xmlns="http://www.w3.org/2000/svg">
<path d="M13.1875 0.879883L12.7656 1.58301L0.765625 21.083L0.296875 21.833L0.71875 22.6299L6.71875 33.1299L7.14063 33.8799H32.9219L33.3438 33.1299L39.3438 22.6299L39.7656 21.833L39.2969 21.083L27.2969 1.58301L26.875 0.879883H13.1875ZM16.7031 3.87988H25.1875L35.3594 20.3799H26.875L16.7031 3.87988ZM14.0313 5.23926L18.4844 12.5049L8.07813 29.4268L3.76563 21.8799L14.0313 5.23926ZM20.2656 15.3643L23.3594 20.3799H17.1719L20.2656 15.3643ZM15.3438 23.3799H35.4531L31.1406 30.8799H10.7031L15.3438 23.3799Z" fill="#D9D9D9"/>
</svg>
