<svg width="139" height="37" viewBox="0 0 139 37" fill="none" xmlns="http://www.w3.org/2000/svg">
<g clip-path="url(#clip0_499_966)">
<path d="M43.418 17.4768C43.418 23.3628 47.3475 27.4668 52.7926 27.4668C58.2378 27.4668 62.1673 23.3628 62.1673 17.4768C62.1673 11.5908 58.2378 7.48682 52.7926 7.48682C47.3475 7.48682 43.418 11.5908 43.418 17.4768ZM58.5746 17.4768C58.5746 21.6888 56.1888 24.4158 52.7926 24.4158C49.3964 24.4158 47.0106 21.6888 47.0106 17.4768C47.0106 13.2648 49.3964 10.5378 52.7926 10.5378C56.1888 10.5378 58.5746 13.2648 58.5746 17.4768Z" fill="#E6E6E6"/>
<path d="M72.2822 27.4669C76.4081 27.4669 78.7658 24.1189 78.7658 20.0959C78.7658 16.0729 76.4081 12.7249 72.2822 12.7249C70.3735 12.7249 68.9702 13.4539 68.0439 14.5069V12.9949H64.6758V32.0299H68.0439V25.6849C68.9702 26.7379 70.3735 27.4669 72.2822 27.4669ZM67.9597 19.6909C67.9597 17.0179 69.5315 15.5599 71.6085 15.5599C74.0504 15.5599 75.3696 17.3959 75.3696 20.0959C75.3696 22.7959 74.0504 24.6319 71.6085 24.6319C69.5315 24.6319 67.9597 23.1469 67.9597 20.5279V19.6909Z" fill="#E6E6E6"/>
<path d="M87.8839 27.4669C90.831 27.4669 93.1606 25.9819 94.1991 23.4979L91.3081 22.4449C90.859 23.9029 89.5399 24.7129 87.8839 24.7129C85.7226 24.7129 84.207 23.2279 83.9544 20.7979H94.2833V19.7179C94.2833 15.8299 92.0098 12.7249 87.7435 12.7249C83.4772 12.7249 80.7266 15.9379 80.7266 20.0959C80.7266 24.4699 83.6737 27.4669 87.8839 27.4669ZM87.7154 15.4519C89.8486 15.4519 90.859 16.8019 90.8871 18.3679H84.1228C84.628 16.4509 85.9752 15.4519 87.7154 15.4519Z" fill="#E6E6E6"/>
<path d="M96.8086 27.1699H100.177V18.8539C100.177 16.8289 101.72 15.7489 103.236 15.7489C105.089 15.7489 105.818 17.0179 105.818 18.7729V27.1699H109.186V17.8279C109.186 14.7769 107.334 12.7249 104.247 12.7249C102.338 12.7249 101.019 13.5619 100.177 14.5069V12.9949H96.8086V27.1699Z" fill="#E6E6E6"/>
<path d="M119.052 7.78394L111.418 27.1699H114.983L116.695 22.7419H125.396L127.136 27.1699H130.757L123.122 7.78394H119.052ZM121.017 11.6179L124.217 19.7179H117.874L121.017 11.6179Z" fill="#E6E6E6"/>
<path d="M136.538 7.84009H132.945V27.2261H136.538V7.84009Z" fill="#E6E6E6"/>
<path d="M35.1872 14.904C36.0362 12.4526 35.7438 9.76722 34.386 7.53747C32.3441 4.11747 28.2392 2.35797 24.2302 3.18597C22.4467 1.25322 19.8844 0.154095 17.198 0.169845C13.1001 0.160845 9.46418 2.69884 8.20347 6.44959C5.57095 6.96822 3.29862 8.55334 1.96891 10.8C-0.0882232 14.211 0.380743 18.5107 3.12905 21.4357C2.28 23.8871 2.57237 26.5725 3.93015 28.8022C5.97208 32.2222 10.077 33.9817 14.086 33.1537C15.8683 35.0865 18.4318 36.1856 21.1182 36.1687C25.2184 36.1788 28.8555 33.6386 30.1162 29.8845C32.7488 29.3658 35.0211 27.7807 36.3508 25.5341C38.4056 22.1231 37.9355 17.8267 35.1883 14.9017L35.1872 14.904ZM21.1205 33.8163C19.4797 33.8186 17.8904 33.2662 16.6308 32.2548C16.6881 32.2256 16.7875 32.1727 16.8519 32.1345L24.3039 27.9945C24.6851 27.7863 24.919 27.396 24.9167 26.9741V16.8682L28.0661 18.6176C28.1 18.6333 28.1223 18.6648 28.1269 18.7008V27.0697C28.1223 30.7912 24.9892 33.8085 21.1205 33.8163ZM6.05278 27.6255C5.23062 26.2597 4.93474 24.6588 5.21659 23.1052C5.27156 23.1367 5.36862 23.1941 5.43762 23.2323L12.8896 27.3723C13.2674 27.585 13.7352 27.585 14.1141 27.3723L23.2116 22.3188V25.8176C23.2139 25.8536 23.1964 25.8885 23.1671 25.911L15.6344 30.0948C12.2791 31.9533 7.99413 30.8486 6.05395 27.6255H6.05278ZM4.09154 11.9778C4.91018 10.6098 6.20247 9.56359 7.74152 9.02022C7.74152 9.08209 7.73801 9.19122 7.73801 9.26772V17.5488C7.73567 17.9696 7.96957 18.36 8.34966 18.5681L17.4471 23.6205L14.2977 25.3698C14.2661 25.3901 14.2264 25.3935 14.1913 25.3788L6.6574 21.1916C3.30915 19.3263 2.16071 15.2055 4.09037 11.979L4.09154 11.9778ZM29.9677 17.7705L20.8702 12.717L24.0197 10.9687C24.0513 10.9485 24.091 10.9451 24.1261 10.9597L31.66 15.1436C35.0141 17.0077 36.1637 21.1353 34.2258 24.3618C33.406 25.7276 32.1149 26.7738 30.577 27.3183V18.7897C30.5805 18.369 30.3478 17.9797 29.9689 17.7705H29.9677ZM33.1019 13.2322C33.047 13.1996 32.9499 13.1433 32.8809 13.1051L25.4289 8.96509C25.0512 8.75247 24.5834 8.75247 24.2045 8.96509L15.107 14.0186V10.5198C15.1046 10.4838 15.1222 10.449 15.1514 10.4265L22.6841 6.24597C26.0394 4.38409 30.3291 5.49222 32.2634 8.72097C33.0809 10.0845 33.3768 11.6808 33.0996 13.2322H33.1019ZM13.3948 19.4681L10.2442 17.7187C10.2103 17.703 10.1881 17.6715 10.1834 17.6355V9.26659C10.1858 5.5406 13.3282 2.52109 17.2015 2.52334C18.84 2.52334 20.4258 3.07684 21.6854 4.08484C21.6281 4.11409 21.5298 4.16697 21.4643 4.20522L14.0123 8.34522C13.6311 8.55334 13.3972 8.9426 13.3995 9.36447L13.3948 19.4658V19.4681ZM15.1058 15.9198L19.1581 13.6687L23.2104 15.9187V20.4198L19.1581 22.6698L15.1058 20.4198V15.9198Z" fill="#E6E6E6"/>
</g>
<defs>
<clipPath id="clip0_499_966">
<rect width="138" height="36" fill="white" transform="translate(0.445312 0.169922)"/>
</clipPath>
</defs>
</svg>
