<svg width="116" height="36" viewBox="0 0 116 36" fill="none" xmlns="http://www.w3.org/2000/svg">
<path fill-rule="evenodd" clip-rule="evenodd" d="M77.9979 28.6747L73.9254 27.7055V11.346L77.9979 10.5725V28.6747ZM106.486 24.8174C103.532 24.8272 101.138 22.4481 101.118 19.5013V19.4719C101.118 16.574 103.503 14.1949 106.476 14.1949C109.449 14.1949 111.834 16.574 111.834 19.4719C111.844 22.4188 109.449 24.8076 106.505 24.8174H106.486ZM115.72 19.4719C115.72 24.5628 111.589 28.6845 106.486 28.6845C101.383 28.6845 97.2515 24.5628 97.2515 19.4719C97.2515 14.4495 101.393 10.3278 106.496 10.3278C111.598 10.3278 115.72 14.4495 115.72 19.4719ZM63.3271 27.7153L67.3309 28.5475V17.5334C67.3309 12.2467 63.1995 10.3865 60.3537 10.3865C58.4794 10.3865 56.9289 10.8369 55.5747 12.1879C54.1517 10.8369 52.4737 10.318 51.1194 10.318C49.1175 10.318 47.4395 11.1502 46.2717 12.5698V10.6998L42.1992 11.4732V27.7055L46.2717 28.5377V17.4061C46.2717 15.6047 47.5671 14.381 49.5591 14.381C51.4335 14.381 52.7877 15.6047 52.7877 17.4061V27.7153L56.7915 28.5475V17.4061C56.7915 15.6047 58.1457 14.381 60.0887 14.381C61.9631 14.381 63.3173 15.6047 63.3173 17.4061L63.3271 27.7153ZM94.2094 10.3278L91.8149 10.6509C87.3597 11.6788 84.455 13.0984 84.455 17.9936V27.7153L88.5275 28.4887V18.5712C88.5275 16.3194 89.8228 15.2817 91.8247 14.8998L94.2192 14.518L94.2094 10.3278ZM74.1217 3.62146C73.1502 4.61027 73.1502 6.17672 74.1217 7.16553C75.1128 8.18372 76.7516 8.19351 77.7624 7.2047L77.8016 7.16553C78.7732 6.18651 78.7732 4.60048 77.8016 3.62146C76.7614 2.65222 75.1521 2.65222 74.1217 3.62146Z" fill="#E6E6E6"/>
<path fill-rule="evenodd" clip-rule="evenodd" d="M28.1307 0.452881H8.08164C3.85196 0.452881 0.417969 3.87883 0.417969 8.09861V28.1007C0.417969 32.3205 3.85196 35.7465 8.08164 35.7465H28.1307C32.3604 35.7465 35.7944 32.3205 35.7944 28.1007V8.09861C35.7944 3.87883 32.3604 0.452881 28.1307 0.452881ZM21.1175 4.86055H25.0016L32.1209 9.26833L25.0016 31.3386H21.1175L24.3525 11.1693L17.2333 31.3386H13.3491L16.9087 12.4227L9.46491 31.3386H5.58073L9.46491 13.6866L5.58073 4.86055H9.46491L16.9087 11.796L13.3491 4.86055H17.2333L24.3525 10.5322L21.1175 4.86055Z" fill="#E6E6E6"/>
</svg>
