<svg width="123" height="36" viewBox="0 0 123 36" fill="none" xmlns="http://www.w3.org/2000/svg">
<g clip-path="url(#clip0_499_949)">
<path d="M31.7695 0.23291V27.2374L35.0425 27.2507V14.3971H42.95V10.995H35.0425V3.63495H45.3361V0.23291H31.7695Z" fill="#E6E6E6"/>
<path d="M51.2455 5.71327C52.4323 5.71327 53.3817 4.69398 53.3817 3.44965C53.3817 2.20532 52.4198 1.18604 51.2455 1.18604C50.0588 1.18604 49.1094 2.20532 49.1094 3.44965C49.1094 4.69398 50.0713 5.71327 51.2455 5.71327Z" fill="#E6E6E6"/>
<path d="M49.582 9.11523V27.2374H52.855V9.11523H49.582Z" fill="#E6E6E6"/>
<path fill-rule="evenodd" clip-rule="evenodd" d="M65.0126 8.58569C60.6528 8.58569 57.6172 12.4908 57.6172 17.1239C57.6172 21.757 60.6528 25.6621 65.0126 25.6621C67.0113 25.6621 68.6478 24.8414 69.847 23.5176V25.9136C69.847 28.9185 67.6234 31.4204 64.7128 31.4204C63.6634 31.4204 62.6266 30.9968 61.8021 30.3879L60.1531 33.406C61.4648 34.3062 63.0263 34.8225 64.7003 34.8225C69.3474 34.8225 73.1075 30.838 73.1075 25.9136V9.11519H69.847V10.7302C68.6478 9.40642 67.0113 8.58569 65.0126 8.58569ZM60.9026 17.1239C60.9026 14.2514 62.9763 11.9877 65.3748 11.9877C67.7733 11.9877 69.847 14.2514 69.847 17.1239C69.847 19.9964 67.7733 22.2601 65.3748 22.2601C62.9763 22.2601 60.9026 19.9964 60.9026 17.1239Z" fill="#E6E6E6"/>
<path d="M84.9356 11.9877C82.9993 11.9877 81.4253 13.7351 81.4253 15.7869V27.2374H78.1523V9.11519H81.4253V10.7699C82.3872 9.45937 83.7988 8.58569 85.6477 8.58569C87.9462 8.58569 89.7076 9.79031 90.732 11.6436C91.8688 9.85649 93.7176 8.58569 95.9537 8.58569C99.6889 8.58569 102.012 11.7759 102.025 15.7207C102.025 15.734 102.025 15.7472 102.025 15.7604V15.7737V27.2374H98.752V15.7737C98.752 13.7219 97.178 11.9745 95.2417 11.9745C93.3054 11.9745 91.7314 13.7219 91.7314 15.7737V27.2374H88.4584V15.7737C88.4459 13.7219 86.8719 11.9877 84.9356 11.9877Z" fill="#E6E6E6"/>
<path fill-rule="evenodd" clip-rule="evenodd" d="M119.491 11.167C118.03 9.56527 116.031 8.58569 113.72 8.58569C108.848 8.58569 105.375 12.9673 105.375 18.1829C105.375 23.3985 108.835 27.7801 113.72 27.7801C116.031 27.7801 118.03 26.7873 119.491 25.1988V27.2374H122.764V9.11519H119.491V11.167ZM108.66 18.1829C108.66 14.7279 111.159 11.9877 114.082 11.9877C116.993 11.9877 119.504 14.7147 119.504 18.1829C119.504 21.6379 117.005 24.3781 114.082 24.3781C111.159 24.3648 108.66 21.6379 108.66 18.1829Z" fill="#E6E6E6"/>
</g>
<path fill-rule="evenodd" clip-rule="evenodd" d="M11.4959 2.83612H7.46422C5.23759 2.83612 3.43255 4.64115 3.43255 6.86778C3.43255 9.09441 5.23759 10.8994 7.46422 10.8994H11.4959V2.83612ZM11.4959 0.102783H14.2292H18.2609C21.9972 0.102783 25.0257 3.13156 25.0257 6.86778C25.0257 9.0726 23.9712 11.0311 22.3386 12.2661C23.9712 13.5012 25.0257 15.4597 25.0257 17.6645C25.0257 21.4007 21.9972 24.4295 18.2609 24.4295C16.7502 24.4295 15.3552 23.9343 14.2292 23.0974V24.4295V28.4611C14.2292 32.1973 11.2004 35.2261 7.46422 35.2261C3.728 35.2261 0.699219 32.1973 0.699219 28.4611C0.699219 26.2562 1.75396 24.2978 3.38641 23.0628C1.75396 21.8277 0.699219 19.8693 0.699219 17.6645C0.699219 15.4597 1.75398 13.5012 3.38647 12.2661C1.75398 11.0311 0.699219 9.0726 0.699219 6.86778C0.699219 3.13156 3.728 0.102783 7.46422 0.102783H11.4959ZM14.2292 2.83612V10.8994H18.2609C20.4876 10.8994 22.2924 9.09441 22.2924 6.86778C22.2924 4.64115 20.4876 2.83612 18.2609 2.83612H14.2292ZM7.46422 21.6961H11.4959V17.6749V17.6645V17.6541V13.6328H7.46422C5.23759 13.6328 3.43255 15.4378 3.43255 17.6645C3.43255 19.8858 5.22895 21.6875 7.44823 21.6961L7.46422 21.6961ZM3.43255 28.4611C3.43255 26.2398 5.22895 24.4381 7.44823 24.4295L7.46422 24.4295H11.4959V28.4611C11.4959 30.6877 9.69085 32.4928 7.46422 32.4928C5.23759 32.4928 3.43255 30.6877 3.43255 28.4611ZM14.2292 17.6564C14.2336 15.4335 16.0369 13.6328 18.2609 13.6328C20.4876 13.6328 22.2924 15.4378 22.2924 17.6645C22.2924 19.8911 20.4876 21.6961 18.2609 21.6961C16.0369 21.6961 14.2336 19.8955 14.2292 17.6725V17.6564Z" fill="#E6E6E6"/>
<defs>
<clipPath id="clip0_499_949">
<rect width="120" height="35" fill="white" transform="translate(2.76172 0.23291)"/>
</clipPath>
</defs>
</svg>
