<svg width="152" height="40" viewBox="0 0 152 40" fill="none" xmlns="http://www.w3.org/2000/svg">
<path d="M69.8926 27.061H61.5536L59.6346 32.818C59.5648 33.0274 59.4602 33.0972 59.2508 33.0972H55.7617C55.5523 33.0972 55.4826 32.9925 55.5174 32.7483L62.705 12.302C62.8446 11.9531 62.9493 11.6042 63.0191 10.4179C63.0191 10.2783 63.0888 10.1737 63.2284 10.1737H68.0783C68.2527 10.1737 68.2876 10.2086 68.3225 10.383L76.3824 32.7831C76.4173 32.9925 76.3824 33.0972 76.173 33.0972H72.2652C72.0908 33.0972 71.9861 33.0274 71.9163 32.8878L69.8926 27.061ZM62.6701 23.2579H68.7761C68.0434 20.955 66.4035 16.1052 65.7057 13.6628H65.6708C65.1125 16.0005 63.7169 20.0828 62.6701 23.2579ZM86.5861 33.4461C81.5269 33.4461 77.654 30.5152 77.654 24.6535C77.654 19.5943 81.4222 15.5469 87.5631 15.5469C88.0516 15.5469 88.4703 15.5818 89.0634 15.6516V8.49888C89.0634 8.32443 89.1332 8.25465 89.2728 8.25465H93.0759C93.2504 8.25465 93.2504 8.32443 93.2504 8.46399V29.5383C93.2504 30.2361 93.3201 31.1433 93.3899 31.7713C93.3899 31.9458 93.355 32.0155 93.1806 32.0853C90.9126 33.0623 88.6796 33.4461 86.5861 33.4461ZM89.0634 29.5383V19.3152C88.6098 19.1407 88.0516 19.0709 87.4235 19.0709C84.3182 19.0709 81.9805 21.0597 81.9805 24.4442C81.9805 28.2473 84.2484 29.8174 87.0397 29.8174C87.7375 29.8174 88.4354 29.7476 89.0634 29.5383ZM105.077 15.5469C110.451 15.5469 113.381 19.6292 113.381 24.4093C113.381 29.8174 109.927 33.4461 105.008 33.4461C99.1808 33.4461 96.5988 28.9451 96.5988 24.5139C96.5988 19.5594 99.8437 15.5469 105.077 15.5469ZM104.868 19.0709C102.53 19.0709 100.856 21.1295 100.856 24.4442C100.856 27.6541 102.426 29.8872 105.077 29.8872C107.241 29.8872 109.09 28.1077 109.09 24.5139C109.09 21.618 107.834 19.0709 104.868 19.0709ZM116.904 8.25465H120.567C120.811 8.25465 120.881 8.28954 120.881 8.53377L120.916 16.0354C121.858 15.7214 122.94 15.5469 124.091 15.5469C129.115 15.5469 132.325 19.1058 132.325 23.7812C132.325 30.2361 127.301 33.4461 122.137 33.4461C120.323 33.4461 118.578 33.2018 116.904 32.6785C116.764 32.6436 116.659 32.4691 116.659 32.3645V8.49888C116.659 8.32443 116.764 8.25465 116.904 8.25465ZM128.034 24.1999C128.034 20.8853 126.115 19.1407 123.358 19.1407C122.137 19.1407 121.474 19.3152 120.916 19.5245V29.7127C121.405 29.8523 121.928 29.8872 122.521 29.8872C125.382 29.8872 128.034 28.0728 128.034 24.1999ZM146.135 25.456H139.052C139.157 27.8984 140.762 29.8523 144.32 29.8523C145.891 29.8523 147.321 29.5732 148.647 29.0149C148.752 28.9451 148.856 28.98 148.856 29.1545V32.0504C148.856 32.2598 148.786 32.3645 148.647 32.4342C147.321 33.0623 145.786 33.4461 143.413 33.4461C137.063 33.4461 134.795 28.98 134.795 24.6884C134.795 19.8385 137.726 15.5469 142.995 15.5469C148.158 15.5469 150.147 19.5943 150.147 22.9089C150.147 23.8859 150.112 24.6884 150.008 25.0722C149.973 25.2118 149.903 25.2815 149.729 25.3164C149.24 25.4211 147.844 25.456 146.135 25.456ZM139.052 22.4554H144.251C145.576 22.4554 146.03 22.4554 146.17 22.4205V22.1413C146.17 21.1295 145.472 18.8965 142.82 18.8965C140.413 18.8965 139.331 20.7457 139.052 22.4554Z" fill="#E6E6E6"/>
<path d="M30.1552 1.7124C29.6929 1.75314 29.2106 1.79388 28.7484 1.85498C26.776 2.07848 24.8577 2.6535 23.0811 3.55375C21.2497 4.46627 19.5849 5.69037 18.1583 7.17329C18.0983 7.25477 17.9782 7.2955 17.8761 7.27513C16.8855 7.12524 15.8825 7.07747 14.8824 7.13255C12.8425 7.23458 10.8451 7.76364 9.01506 8.6867C5.47703 10.4873 2.9856 13.2901 1.53877 17.0542C1.0109 18.4491 0.699009 19.9189 0.614242 21.4111C0.614242 21.513 0.59423 21.5944 0.574219 21.6759V23.2504C0.614242 23.6598 0.674276 24.0489 0.714299 24.4583C0.914414 26.1143 1.37868 27.7092 2.12111 29.2042C3.77005 32.5569 6.3015 35.0114 9.69745 36.5248C11.2482 37.2207 12.9085 37.6298 14.6003 37.7327C14.6643 37.7327 14.7203 37.7408 14.7724 37.753H31.9342C32.3004 37.7184 32.6586 37.6818 33.0288 37.6308C34.9877 37.407 36.8922 36.8318 38.6541 35.9321C41.6631 34.4372 44.1932 32.1034 45.9502 29.2022C47.1535 27.2884 47.9597 25.1445 48.3196 22.9021C48.4197 22.2096 48.4797 21.4926 48.5617 20.796C48.5617 20.6941 48.5818 20.6127 48.6018 20.5312V18.9139C48.5617 18.4454 48.5017 17.9932 48.5017 17.5655C48.282 15.5709 47.7169 13.6317 46.8328 11.8378C45.3424 8.77768 43.0376 6.20518 40.1809 4.41331C38.3105 3.20338 36.2197 2.38941 34.0334 2.01997C33.309 1.89776 32.6066 1.83665 31.8822 1.75518C31.7821 1.75518 31.7021 1.73481 31.602 1.71444L30.1552 1.7124ZM30.8936 5.16085C35.1481 5.17103 38.7581 6.84331 41.6898 10.1614C43.3497 12.0781 44.4674 14.4175 44.9237 16.93C45.2238 18.4861 45.2859 20.081 45.0637 21.6555C44.6835 24.3972 43.6589 26.8496 41.9099 28.9985C39.8777 31.538 37.0568 33.298 33.9113 33.9889C32.2289 34.3638 30.4945 34.4327 28.7884 34.1926C26.5971 33.9074 24.588 33.1721 22.779 31.842C22.299 31.4925 21.8491 31.102 21.4342 30.6749C18.9808 28.2204 16.5514 25.7456 14.098 23.2912C13.4956 22.6801 13.4556 22.0038 13.7378 21.3887C13.8853 21.0603 14.1332 20.7893 14.4444 20.6161C14.7556 20.4428 15.1135 20.3766 15.4648 20.4273C15.885 20.468 16.2092 20.7145 16.5094 21.0221C18.7206 23.2912 20.9119 25.5215 23.1212 27.7927C24.7799 29.5145 26.9605 30.6167 29.3107 30.9213C33.2089 31.453 36.5248 30.2268 39.1564 27.259C40.5832 25.6438 41.4477 23.7006 41.8099 21.5333C42.3302 18.3008 41.5897 15.3962 39.6186 12.8399C37.8716 10.5688 35.5803 9.15722 32.8067 8.64596C29.9731 8.13674 27.3016 8.6867 24.8702 10.2632C24.8101 10.304 24.67 10.3244 24.608 10.2836C23.724 9.61795 22.7823 9.0357 21.7944 8.54411C21.7944 8.54411 21.7744 8.52375 21.7544 8.48301C22.5262 7.82889 23.3688 7.26647 24.2658 6.80665C25.8986 5.90446 27.6989 5.36047 29.5508 5.20973C29.997 5.17539 30.4442 5.15908 30.8916 5.16085H30.8936ZM15.6749 10.5851C18.5866 10.5362 21.2601 11.6544 23.6435 13.9052C25.3524 15.5388 26.9193 17.2375 28.5663 18.9363C29.0285 19.4048 29.1286 19.9996 28.9085 20.633C28.6883 21.2665 28.1841 21.5741 27.5417 21.6759C27.3094 21.7081 27.0728 21.6823 26.8525 21.6007C26.6321 21.5191 26.4346 21.3841 26.277 21.2074C24.7081 19.6105 23.1412 18.036 21.5943 16.4207C20.3275 15.0907 18.8207 14.3329 17.0517 14.005C13.1334 13.2901 9.17515 15.6019 7.76835 19.3844C5.95931 24.1915 8.81295 29.632 13.7358 30.7787C14.7003 31.0028 15.7269 31.0028 16.7315 30.9824C17.0116 30.9621 17.1717 31.0639 17.3719 31.2472C18.3384 32.2107 19.363 33.1721 20.3676 34.1315C20.4276 34.1926 20.5077 34.2537 20.5677 34.3148C20.4476 34.3148 20.3676 34.3352 20.2875 34.3352H15.6849C13.0293 34.3346 10.4533 33.4124 8.38212 31.7208C6.31089 30.0292 4.86826 27.6693 4.29235 25.0307C2.9856 19.0381 6.36154 12.9621 12.1489 11.1839C13.2905 10.8157 14.4776 10.614 15.6749 10.5851Z" fill="#E6E6E6"/>
</svg>
