<svg width="99" height="36" viewBox="0 0 99 36" fill="none" xmlns="http://www.w3.org/2000/svg">
<g clip-path="url(#clip0_499_977)">
<path d="M50.7137 10.3246C50.7081 10.4905 50.6364 10.6477 50.5138 10.7631C50.3911 10.8785 50.2271 10.943 50.0564 10.9429H43.284C42.8402 10.9429 42.4696 10.5929 42.4696 10.1671C42.4696 8.24558 41.7858 7.30991 40.3872 7.30991C38.9886 7.30991 38.0866 8.14524 38.0602 9.60474C38.0302 11.2322 38.9766 12.7116 41.6707 15.2526C45.2176 18.4889 46.639 21.3554 46.5707 25.1447C46.4591 31.2721 42.1757 35.2329 35.6576 35.2329C32.329 35.2329 29.786 34.3672 28.0947 32.6592C26.3782 30.9244 25.5913 28.3787 25.7557 25.0934C25.7613 24.9273 25.8332 24.7699 25.9561 24.6544C26.079 24.539 26.2433 24.4747 26.4142 24.4751H33.4193C33.5169 24.4766 33.6129 24.4991 33.7004 24.5411C33.788 24.5831 33.8648 24.6434 33.9255 24.7177C33.9784 24.7792 34.0172 24.851 34.0391 24.9283C34.061 25.0056 34.0657 25.0866 34.0526 25.1657C33.9747 26.3511 34.187 27.2366 34.6668 27.7266C34.9739 28.0439 35.4021 28.2049 35.9359 28.2049C37.2301 28.2049 37.9882 27.3159 38.017 25.7666C38.041 24.4272 37.6056 23.2536 35.233 20.8794C32.1682 17.9674 29.4202 14.9586 29.5053 10.2277C29.5557 7.48374 30.676 4.97424 32.6612 3.16124C34.7604 1.24558 37.6308 0.23291 40.963 0.23291C44.3012 0.256243 46.831 1.18258 48.4827 2.98624C50.0468 4.69541 50.7989 7.16408 50.7161 10.3246H50.7137Z" fill="#E6E6E6"/>
<path d="M71.704 34.0802L71.7484 1.49172C71.7497 1.41011 71.7342 1.32908 71.7028 1.25338C71.6715 1.17767 71.6248 1.10884 71.5657 1.0509C71.5066 0.992973 71.4362 0.947118 71.3586 0.916033C71.281 0.884948 71.1978 0.86926 71.1139 0.869891H60.6326C60.28 0.869891 60.1252 1.16506 60.0245 1.35989L44.8484 33.8807V33.8866L44.8424 33.8947C44.6744 34.2949 44.9935 34.7231 45.4385 34.7231H52.7651C53.1609 34.7231 53.4236 34.6064 53.552 34.3637L55.007 30.9629C55.1857 30.5091 55.2193 30.4671 55.7279 30.4671H62.7282C63.2152 30.4671 63.2247 30.4764 63.2176 30.9396L63.0604 34.1012C63.0591 34.1827 63.0746 34.2637 63.1059 34.3393C63.1372 34.4149 63.1837 34.4837 63.2427 34.5416C63.3017 34.5995 63.372 34.6454 63.4494 34.6766C63.5269 34.7077 63.6099 34.7235 63.6938 34.7231H71.0959C71.1875 34.7242 71.2783 34.7057 71.3618 34.669C71.4453 34.6323 71.5196 34.5783 71.5793 34.5107C71.6308 34.452 71.6687 34.3831 71.6902 34.3088C71.7117 34.2345 71.7165 34.1565 71.704 34.0802ZM58.7374 23.1999C58.6822 23.2002 58.6269 23.1982 58.5719 23.1941C58.5462 23.192 58.5213 23.1845 58.4989 23.172C58.4766 23.1596 58.4573 23.1426 58.4424 23.1221C58.4276 23.1016 58.4175 23.0783 58.4129 23.0536C58.4083 23.0289 58.4094 23.0036 58.4159 22.9794C58.4303 22.9327 58.4507 22.8686 58.4807 22.7904L63.7297 10.1577C63.7769 10.0331 63.8314 9.91116 63.8929 9.79256C63.978 9.62223 64.0812 9.61056 64.1136 9.73656C64.1412 9.84156 63.5114 22.7076 63.5114 22.7076C63.4623 23.1894 63.4395 23.2092 62.9513 23.2489L58.7422 23.2022H58.7326L58.7362 23.1999L58.7374 23.1999Z" fill="#E6E6E6"/>
<path d="M86.6344 0.869955H81.07C80.7761 0.869955 80.4462 1.02162 80.3694 1.36229L72.6254 34.064C72.6085 34.1377 72.6093 34.2142 72.6276 34.2877C72.6459 34.3611 72.6813 34.4294 72.731 34.4875C72.7956 34.5614 72.8759 34.6207 72.9664 34.6614C73.0569 34.7021 73.1555 34.7232 73.2552 34.7231H80.2099C80.5842 34.7231 80.8396 34.5446 80.9092 34.2355L81.7537 30.529C81.8136 30.2396 81.7105 30.0156 81.4442 29.8803C81.3192 29.8177 81.1945 29.7547 81.07 29.6913L79.8644 29.0811L78.6649 28.4721L78.2007 28.2376C78.163 28.2193 78.1313 28.191 78.1094 28.1559C78.0876 28.1207 78.0764 28.0803 78.0772 28.0393C78.0788 27.9785 78.1048 27.9208 78.1496 27.8785C78.1945 27.8362 78.2546 27.8126 78.3171 27.813L82.1279 27.8293C83.2674 27.8351 84.4082 27.757 85.5297 27.5563C93.4224 26.1388 98.6643 19.9905 98.8154 11.6243C98.9449 4.48429 94.8474 0.866455 86.6404 0.866455L86.6344 0.869955ZM84.7404 20.33H84.5917C84.257 20.33 84.1983 20.295 84.1887 20.2833C84.1827 20.2751 86.3861 10.8648 86.3873 10.852C86.4437 10.5801 86.4413 10.4238 86.2686 10.3316C86.0479 10.2126 82.8308 8.56295 82.8308 8.56295C82.7934 8.54382 82.7622 8.51489 82.7408 8.47943C82.7194 8.44397 82.7086 8.4034 82.7097 8.36229C82.7112 8.30235 82.7368 8.24538 82.781 8.20353C82.8251 8.16168 82.8843 8.13827 82.946 8.13829H88.0331C89.6164 8.18496 90.4992 9.56279 90.4573 11.916C90.3841 15.9888 88.3929 20.1876 84.7404 20.3311V20.33Z" fill="#E6E6E6"/>
<path d="M29.3809 16.6596V16.6748L28.0914 22.1185C28.0219 22.4265 27.7052 22.6516 27.3406 22.6516H25.7824C25.7262 22.6519 25.6716 22.6697 25.6267 22.7025C25.5818 22.7353 25.5489 22.7813 25.5329 22.8336C24.0959 27.575 22.1503 30.8335 19.581 32.79C17.3955 34.456 14.7014 35.233 11.1017 35.233C7.86781 35.233 5.68712 34.2215 3.83748 32.2241C1.3929 29.5851 0.382914 25.2638 0.994661 20.0581C2.0982 10.285 7.31005 0.423132 17.3451 0.423132C20.3978 0.397466 22.7944 1.3133 24.4617 3.14147C26.225 5.0758 27.1198 7.9878 27.1246 11.8005C27.1203 11.9676 27.049 12.1265 26.926 12.2433C26.803 12.3601 26.638 12.4255 26.4661 12.4258H19.1132C18.9843 12.422 18.8619 12.3702 18.7711 12.2812C18.6803 12.1923 18.628 12.0728 18.625 11.9475C18.565 9.3108 17.7613 8.02747 16.1636 8.02747C13.3447 8.02747 11.6822 11.7491 10.8006 13.8118C9.56871 16.6935 8.94137 19.8236 9.06492 22.941C9.1237 24.3923 9.3636 26.4328 10.7802 27.2786C12.0361 28.0276 13.8281 27.5306 14.9137 26.7011C15.998 25.8705 16.8713 24.4343 17.2383 23.1241C17.2899 22.9421 17.2935 22.801 17.2443 22.738C17.1928 22.6726 17.05 22.6575 16.9409 22.6575H15.0528C14.9529 22.6578 14.8541 22.6368 14.7634 22.5961C14.6726 22.5554 14.5921 22.4959 14.5275 22.4218C14.4779 22.3639 14.4426 22.2957 14.4245 22.2225C14.4064 22.1492 14.4059 22.0729 14.4231 21.9995L15.7138 16.5465C15.7773 16.2676 16.0376 16.0565 16.3579 16.0191V16.0051H28.7488C28.7776 16.0051 28.8075 16.0051 28.8351 16.011C29.1566 16.0518 29.3833 16.3423 29.3773 16.6596H29.3809Z" fill="#E6E6E6"/>
</g>
<defs>
<clipPath id="clip0_499_977">
<rect width="97.9999" height="35" fill="white" transform="translate(0.820312 0.23291)"/>
</clipPath>
</defs>
</svg>
