<?xml version="1.0" encoding="UTF-8"?>
<svg id="Layer_1" xmlns="http://www.w3.org/2000/svg" version="1.1" viewBox="0 0 3155.7 806.57">
  <!-- Generator: Adobe Illustrator 29.1.0, SVG Export Plug-In . SVG Version: 2.1.0 Build 142)  -->
  <defs>
    <style>
      .st0 {
        fill: #fff;
      }
    </style>
  </defs>
  <path class="st0" d="M1113.96,523.42c58.17-1.85,107.48-65.88,145.43-137.49-2.89-7.85-15.32-15.92-23.26-15.67-35,64.63-77.29,116.27-108.49,117.26-12.16.38-24.56-6.63-2.15-67.69l66.25-180.49,46.53-1.48,10.73-28.92-46.54,1.48,28.25-77.12-55.52,1.77-28.25,77.12-48.65,1.55-10.73,28.93,48.65-1.55-49.08,133.53c-.07,0-.15,0-.22,0-36.52,68.96-89.32,118.01-140.58,120.4-67.11,3.12-40.17-78.1-40.17-78.1,67.99,4.26,112.79-11.6,137.6-70.48,27.7-64.84-.83-109.06-52.63-106.65-65.67,3.05-113.52,77.72-132.55,147.19-38.06,74.99-64.25,116.31-84.15,117.59-8.44.54-22.12-6-1.71-67.75l19.99-60.14c4-11.92,5.02-21,4.61-27.34-2.17-33.79-45.35-53.81-67.79-73.05l17.04-48.28-29.8-18.23c-21.21,8.25-44.99,34.18-43.39,58.99.82,12.68,8.39,23.32,18.54,32.74-13.06,34.55-27.61,70.25-40.69,96.5-.27,0-.56,0-.82.02-30.64,64.22-67.84,119.96-94.2,122.21-13.71,1.17-21.73-11.96-4.7-67.58l56.55-183.79-55.36,4.72-11.7,37.11s-11.55-42.03-55.84-38.25c-58.11,4.95-93.21,80.72-109.41,148.77-14.41,32.99-38.76,62.83-90.7,88.32l81.78-292.35c13.7-44.12,39.63-55,39.63-55l-13.69-32.01c-28.39,3.18-51.57,24.39-65.64,50.99-74.76,45.61-236.66,111.62-224.56,219.93,5.94,57.89,50.07,95.55,110.01,88.85l-5.11-45.74c-30.5,3.41-54.93-15.16-58.45-46.7-7.7-68.88,93.87-117.49,156.77-154.87l-80.91,290.65c-87.97,27.4-194.21,67.48-184.81,151.61,5.29,47.32,46.43,67.74,84.29,63.51,69.4-7.76,112.2-58.32,147.86-191.67,45.97-19.65,73.21-38.64,92.89-62.06-.22,6.8-.11,12.84.32,17.91,2.83,33.22,21.91,57.61,55.65,54.73,42.71-3.63,70.74-48.51,70.74-48.51,0,0,3.6,42.18,51.58,38.09,54.06-4.61,96.12-69.78,130.6-143.48.24,0,.49.01.72,0,15.45-31.74,28.73-64.41,40.1-93.77,17.81,13.17,28.95,21.47,29.63,32.03.14,2.11-.05,7.43-3.59,18.26l-16.48,48.78c-31.65,93.23-4.69,124.9,37.02,122.22,34.99-2.25,62.9-34.49,88.84-78.51,4.88,47.37,34.79,70.94,85.58,68.57,52.46-2.44,94.11-31.08,126.18-68.02-4.05,46.21,18.92,61.49,51.95,60.44ZM989.56,285.41c18.5-.86,21.32,14.37,7.04,48.93-12.36,30.23-31.17,58.64-82.32,52.02,0,0,29.3-98.81,75.28-100.94ZM121.4,702.97c-19.45,2.17-32.9-8.57-34.83-25.92-5.46-48.9,64.86-76.99,125.31-98.11-23.79,77.71-50.52,119.56-90.48,124.02ZM493.18,466.14s-25.39,51.02-56.5,53.68c-11.6.99-17.98-5.37-19.24-20.13-3.55-41.65,31.65-176.89,81.21-181.11,26.36-2.25,29.07,35.76,29.07,35.76l-34.54,111.81Z"/>
  <path class="st0" d="M1419.69,294.66s-12.78-22.7-12.88-49.69c-.23-58.21,55.54-144.14,154.49-144.52,76.2-.29,119.27,56.16,119.49,114.37.29,76.19-73.46,161.14-172.06,113.89l44.56-110.76c17.83-43.46,46.36-53.62,46.36-53.62l-10.18-33.3c-38.1.14-70.25,32.54-84.92,69.11l-125.79,315.85,55.55-.21,60.27-151.57c134.65,64.04,238.48-43.77,238.06-151.71-.33-86.78-70.44-155.83-170.97-155.45-122.23.47-200.7,97.6-200.35,190.2.17,44.98,20.92,75.59,20.92,75.59l37.46-28.19Z"/>
  <path class="st0" d="M3095.48,456.21c-42.71,56.9-90.18,104.2-116.99,101.14-8.41-.96-23.05-7.96,9.26-67.1l41.06-75.19c14.22-26.6,22.92-46.91,24.73-62.68,3.06-26.81-13.78-42.58-36.38-45.16-20.5-2.34-47.34,4.18-76.98,25.83l14.17-26.08-55.2-6.3-67.89,125.33c-.14-.02-.29-.05-.43-.07-33.34,46.44-67.62,61.45-95.03,53.17,26.47-40.67,43.56-89.61,46.47-122.29,4.49-50.59-22.9-76.93-61.9-80.4-68.36-6.08-121.72,62.29-149.15,126.84-26.58,39.49-60.74,82.1-90.22,94.89,5.09-12.37,7.66-26.52,8.71-41.82,1.61-31.17-3.54-117.97,19.98-190.06l-43.07-21.53c-23.08,42.9-61.83,105.89-88.38,144.9-.26-.03-.52-.08-.77-.09-47.17,71.18-78.31,109.81-98.39,108.77-8.45-.44-21.28-8.53,6.17-67.49l26.84-57.41c5.36-11.37,7.41-20.27,7.74-26.62,1.77-33.81-38.78-58.71-58.84-80.42l22.53-45.97-27.48-21.57c-22.01,5.74-48.65,28.72-49.95,53.55-.66,12.68,5.62,24.13,14.62,34.67-17.06,32.94-35.73,66.84-51.82,91.41-.18-.01-.36-.05-.54-.05-42.01,65.77-98.63,110.38-149.93,108.59-67.15-2.35-33.69-81.13-33.69-81.13,67.43,9.77,113.39-2.39,142.9-59.06,32.89-62.39,8.04-108.79-43.78-110.6-65.84-2.3-119.68,68.5-144.24,136.31-40.74,65.3-95.93,109.88-146.69,108.98-67.18-1.2-35.08-80.53-35.08-80.53,67.58,8.61,113.33-4.34,141.86-61.51,31.82-62.94,6.18-108.9-45.67-109.83-88.88-1.59-153.66,129.56-155.01,205.74-.93,52.37,27.67,80.4,81.1,81.35,60.39,1.08,108.76-33.36,145.18-76-1.26,51.4,26.82,79.42,79.71,81.27,84.36,2.95,146.42-63.82,185.15-125.85.15.01.31.05.46.05,19.04-29.73,36.02-60.64,50.71-88.47,16.16,15.15,26.26,24.68,25.71,35.25-.11,2.11-.91,7.37-5.69,17.72l-22.03,46.53c-42.25,88.92-19.16,123.5,22.58,125.68,50.08,2.62,92.87-57.36,137.1-125.31.24.03.49.08.72.1,14.79-22.31,32.03-49.24,47.6-75.21-3.89,41.09-3.44,80.9-5.3,107.82-3.41,49.61-15.45,62.57-36.03,61.15-10.56-.72-20.33-5.11-29.1-16.32l-30.27,15.95c2.66,7.61,23.4,37.67,70.37,40.9,59.32,4.08,100.21-24.5,134.11-64.06-3.43,49.47,24.2,75.07,62.55,78.48,39,3.47,73.26-17.39,100.45-48.44,26.42,9.36,52.16,6.33,75.88-5.8l-31.84,58.78,55.2,6.3,101.17-186.55c26.06-23.12,52.73-32.85,66.93-31.24,8.41.96,14.24,5.89,13.4,13.24-.96,8.41-11.01,26.43-24.53,51.52l-26.95,49.64c-47.82,87.73-27.24,122.03,16.39,127.01,52.56,6,106.07-47.54,156.46-115.81-1.74-8.18-12.86-17.98-20.74-18.88ZM2078.55,281.58c18.51.65,20.08,16.06,3.04,49.35-14.78,29.13-35.85,55.93-86.29,45.16,0,0,37.25-96.12,83.25-94.51ZM1849.52,275.09c18.52.33,20.36,15.71,3.89,49.28-14.29,29.38-34.87,56.53-85.51,46.63,0,0,35.6-96.74,81.62-95.92ZM2733.78,346.67c-1.78,20.03-13.12,51.95-28.63,82.97-19.75-4.95-38.02,9.37-39.74,28.86-.85,9.49,2.14,17.72,7.42,24.03-17.44,22.88-36.33,38.2-52.68,36.75-14.22-1.27-22.1-14.18-20.32-34.21,4.36-49.01,68.74-175.55,115.11-171.43,12.11,1.08,20.81,10.88,18.85,33.02Z"/>
  <path class="st0" d="M551.25,693.51c6.84-3.83,16.89-12.39,16.89-24.17,0-16.06-14.12-28.46-31.3-28.46h-33.92c-1.6,0-2.77,1.38-2.77,2.91v101.29c0,1.53,1.16,2.91,2.77,2.91h36.11c17.33,0,31.74-12.39,31.74-29.53,0-14.08-11.79-21.57-19.51-24.94ZM522.85,662.91h11.36c5.53,0,10.19,4.28,10.19,10.4s-4.66,11.02-10.19,11.02h-11.36v-21.42ZM536.1,726.1h-13.25v-21.88h11.79c5.68,0,11.94,4.59,11.94,10.71s-4.81,11.17-10.48,11.17Z"/>
  <path class="st0" d="M670.93,673.92c0-18.21-14.27-33.05-31.74-33.05h-43.53c-1.6,0-2.77,1.38-2.77,2.91v101.29c0,1.53,1.17,2.91,2.77,2.91h17.33c1.46,0,2.77-1.38,2.77-2.91v-39.01h10.05l19.37,40.54c.29.61,1.17,1.38,2.33,1.38h19.37c2.48,0,3.49-2.45,2.48-4.44l-19.95-38.86c12.67-5.35,21.55-16.68,21.55-30.75ZM637.3,686.62h-21.55v-23.87h21.55c5.97,0,11.07,5.2,11.07,11.63s-5.1,12.24-11.07,12.24Z"/>
  <path class="st0" d="M732.95,641.03c-.44-.92-1.46-1.68-2.47-1.68h-1.46c-1.02,0-2.04.77-2.48,1.68l-45.57,102.97c-.87,1.99.29,3.98,2.47,3.98h16.02c2.91,0,4.51-1.84,5.24-3.67l5.24-12.24h39.6l5.24,12.09c1.31,2.91,2.48,3.83,5.1,3.83h16.16c2.18,0,3.35-1.99,2.48-3.98l-45.57-102.97ZM718.69,711.25l10.92-25.24h.15l11.07,25.24h-22.13Z"/>
  <path class="st0" d="M878.84,640.87h-17.47c-1.6,0-2.77,1.38-2.77,2.91v54.31h-.15l-58.09-58.75h-3.64c-1.46,0-2.77,1.22-2.77,2.75l.15,102.97c0,1.53,1.31,2.91,2.77,2.91h17.33c1.6,0,2.77-1.38,2.77-2.91v-57.07h.15l57.51,60.74c.29.31,1.46.76,1.89.76h2.33c1.46,0,2.77-1.22,2.77-2.75v-102.97c0-1.53-1.31-2.91-2.77-2.91Z"/>
  <path class="st0" d="M948.44,640.87h-35.53c-1.46,0-2.62,1.38-2.62,2.91v101.29c0,1.53,1.17,2.91,2.62,2.91h35.53c28.1,0,51.11-24.02,51.11-53.7s-23-53.4-51.11-53.4ZM946.98,725.33h-13.98v-61.96h13.98c16.45,0,28.39,13.62,28.39,30.91s-11.94,31.06-28.39,31.06Z"/>
  <path class="st0" d="M1142.66,732.37l-12.38-12.09c0-.31,5.68-8.42,9.17-19.12.58-1.84,2.18-5.51-1.89-7.04l-10.63-3.98c-3.93-1.53-4.8.92-5.68,4.13-1.02,3.67-2.91,8.57-4.8,11.78l-13.1-14.08c0-1.22,15.87-10.25,15.87-27.08,0-14.23-12.52-25.55-29.12-25.55-18.64,0-28.25,13.16-28.25,24.79,0,8.87,3.79,15.45,9.61,21.88l2.91,3.21v.46s-19.95,8.72-19.95,30.75c0,15.91,13.4,29.07,32.03,29.07,21.84,0,31.74-11.78,31.74-11.78l9.46,9.94c2.33,2.45,4.81,2.14,6.55.46l8.15-8.72c3.64-3.83,2.18-5.2.29-7.04ZM1089.81,656.48c6.26,0,10.77,4.59,10.77,9.79,0,8.57-9.46,13.01-9.46,13.01l-3.2-3.37c-3.79-4.44-6.7-7.34-6.7-11.93,0-3.98,3.2-7.5,8.59-7.5ZM1088.94,730.38c-7.72,0-13.69-5.66-13.69-13,0-12.39,10.34-16.06,10.34-16.06l19.07,21.27s-4.37,7.8-15.72,7.8Z"/>
  <path class="st0" d="M1290.74,641.79c-.15-1.38-1.46-2.45-2.62-2.45h-2.33c-.73,0-2.04.61-2.48,1.53l-33.78,66.1h-.29l-33.78-66.1c-.44-.92-1.75-1.53-2.48-1.53h-2.33c-1.16,0-2.47,1.07-2.62,2.45l-16.45,102.82c-.29,1.99,1.02,3.37,2.77,3.37h17.18c1.46,0,2.62-1.22,2.77-2.45l6.41-47.28h.29l24.61,49.57c.44.92,1.6,1.68,2.48,1.68h2.62c.73,0,2.04-.76,2.48-1.68l24.46-49.57h.29l6.55,47.28c.15,1.22,1.46,2.45,2.77,2.45h17.18c1.75,0,3.06-1.38,2.77-3.37l-16.45-102.82Z"/>
  <path class="st0" d="M1368.34,641.03c-.44-.92-1.46-1.68-2.47-1.68h-1.46c-1.02,0-2.04.77-2.48,1.68l-45.57,102.97c-.87,1.99.29,3.98,2.47,3.98h16.02c2.91,0,4.51-1.84,5.24-3.67l5.24-12.24h39.6l5.24,12.09c1.31,2.91,2.48,3.83,5.1,3.83h16.16c2.18,0,3.35-1.99,2.48-3.98l-45.57-102.97ZM1354.07,711.25l10.92-25.24h.15l11.07,25.24h-22.13Z"/>
  <path class="st0" d="M1507.53,673.92c0-18.21-14.27-33.05-31.74-33.05h-43.53c-1.6,0-2.77,1.38-2.77,2.91v101.29c0,1.53,1.17,2.91,2.77,2.91h17.33c1.46,0,2.77-1.38,2.77-2.91v-39.01h10.05l19.37,40.54c.29.61,1.17,1.38,2.33,1.38h19.37c2.48,0,3.49-2.45,2.48-4.44l-19.95-38.86c12.67-5.35,21.55-16.68,21.55-30.75ZM1473.9,686.62h-21.55v-23.87h21.55c5.97,0,11.07,5.2,11.07,11.63s-5.1,12.24-11.07,12.24Z"/>
  <path class="st0" d="M1576.69,691.36l34.07-44.83c1.6-2.29.15-5.66-2.62-5.66h-18.35c-.87,0-2.18.77-2.77,1.53l-32.32,42.38v-40.24c0-1.99-1.6-3.67-3.49-3.67h-17.04c-2.04,0-3.49,1.68-3.49,3.67v99.76c0,1.99,1.46,3.67,3.49,3.67h17.04c1.89,0,3.49-1.68,3.49-3.67v-45.59l33.63,48.04c.29.46,1.6,1.07,2.62,1.07h20.09c2.77,0,4.37-3.37,2.77-5.66l-37.13-50.8Z"/>
  <path class="st0" d="M1695.35,640.87h-60.28c-1.6,0-2.77,1.38-2.77,2.91v101.29c0,1.53,1.17,2.91,2.77,2.91h60.28c1.6,0,2.77-1.38,2.77-2.91v-16.68c0-1.53-1.17-2.91-2.77-2.91h-40.33v-20.65h33.2c1.46,0,2.77-1.22,2.77-2.91v-16.68c0-1.53-1.31-2.91-2.77-2.91h-33.2v-18.97h40.33c1.6,0,2.77-1.38,2.77-2.91v-16.68c0-1.53-1.17-2.91-2.77-2.91Z"/>
  <path class="st0" d="M1778.2,640.87h-64.65c-1.6,0-2.77,1.38-2.77,2.91v16.68c0,1.53,1.17,2.91,2.77,2.91h20.82v81.7c0,1.53,1.31,2.91,2.77,2.91h17.47c1.46,0,2.77-1.38,2.77-2.91v-81.7h20.82c1.6,0,2.77-1.38,2.77-2.91v-16.68c0-1.53-1.17-2.91-2.77-2.91Z"/>
  <path class="st0" d="M1819.4,640.87h-17.47c-1.46,0-2.77,1.38-2.77,2.91v101.29c0,1.53,1.31,2.91,2.77,2.91h17.47c1.46,0,2.77-1.38,2.77-2.91v-101.29c0-1.53-1.31-2.91-2.77-2.91Z"/>
  <path class="st0" d="M1935.59,640.87h-17.47c-1.6,0-2.77,1.38-2.77,2.91v54.31h-.15l-58.09-58.75h-3.64c-1.46,0-2.77,1.22-2.77,2.75l.15,102.97c0,1.53,1.31,2.91,2.77,2.91h17.33c1.6,0,2.77-1.38,2.77-2.91v-57.07h.15l57.51,60.74c.29.31,1.46.76,1.89.76h2.33c1.46,0,2.77-1.22,2.77-2.75v-102.97c0-1.53-1.31-2.91-2.77-2.91Z"/>
  <path class="st0" d="M2046.53,692.89h-29.26c-1.6,0-2.77,1.22-2.77,2.91v15.15c0,1.53,1.17,2.75,2.77,2.75h9.17v8.87c-4.37,1.84-8.74,2.45-12.96,2.45-15.87,0-28.83-13.77-28.83-30.45s12.81-30.91,28.68-30.91c7.13,0,13.54,1.99,19.07,7.34,1.17.92,2.77.92,3.93-.15l11.5-12.85c1.17-1.22,1.02-3.06-.29-4.13-9.9-9.03-23.3-14.38-35.53-14.38-28.97,0-52.27,24.48-52.27,55.08s23.3,54.77,52.27,54.77c21.11,0,36.11-9.94,36.11-9.94.58-.46,1.16-1.68,1.16-2.45l-.15-41.16c0-1.53-1.17-2.91-2.62-2.91Z"/>
  <path class="st0" d="M2146.85,640.87h-35.53c-1.46,0-2.62,1.38-2.62,2.91v101.29c0,1.53,1.17,2.91,2.62,2.91h35.53c28.1,0,51.11-24.02,51.11-53.7s-23-53.4-51.11-53.4ZM2145.4,725.33h-13.98v-61.96h13.98c16.45,0,28.39,13.62,28.39,30.91s-11.94,31.06-28.39,31.06Z"/>
  <path class="st0" d="M2282.4,640.87h-60.28c-1.6,0-2.77,1.38-2.77,2.91v101.29c0,1.53,1.17,2.91,2.77,2.91h60.28c1.6,0,2.77-1.38,2.77-2.91v-16.68c0-1.53-1.17-2.91-2.77-2.91h-40.33v-20.65h33.2c1.46,0,2.77-1.22,2.77-2.91v-16.68c0-1.53-1.31-2.91-2.77-2.91h-33.2v-18.97h40.33c1.6,0,2.77-1.38,2.77-2.91v-16.68c0-1.53-1.17-2.91-2.77-2.91Z"/>
  <path class="st0" d="M2340.93,682.95c-11.5-4.9-15.87-9.18-15.87-14.84,0-4.13,3.93-7.8,9.17-7.8,8.88,0,19.51,8.42,20.82,9.18,1.31,1.07,3.93-.31,4.95-1.99l7.42-11.78c.58-1.07.87-3.83-.87-4.9-4.37-3.37-16.02-11.48-31.16-11.48-22.42,0-33.63,15.3-33.63,30.45,0,18.36,15.72,28.61,28.25,33.81,9.9,4.13,15,9.03,15,15.45,0,5.35-4.22,9.18-10.05,9.18-9.61,0-20.09-8.11-20.67-8.42-1.02-.77-3.79-1.07-4.95.92l-6.84,12.7c-1.17,2.14-.73,2.75.73,4.28,3.35,3.52,13.83,11.78,32.76,11.78,21.4,0,34.36-15.91,34.36-31.67,0-20.81-18.05-30.14-29.41-34.88Z"/>
  <path class="st0" d="M2411.98,640.87h-17.47c-1.46,0-2.77,1.38-2.77,2.91v101.29c0,1.53,1.31,2.91,2.77,2.91h17.47c1.46,0,2.77-1.38,2.77-2.91v-101.29c0-1.53-1.31-2.91-2.77-2.91Z"/>
  <path class="st0" d="M2522.93,692.89h-29.26c-1.6,0-2.77,1.22-2.77,2.91v15.15c0,1.53,1.17,2.75,2.77,2.75h9.17v8.87c-4.37,1.84-8.74,2.45-12.96,2.45-15.87,0-28.83-13.77-28.83-30.45s12.81-30.91,28.68-30.91c7.13,0,13.54,1.99,19.07,7.34,1.17.92,2.77.92,3.93-.15l11.5-12.85c1.17-1.22,1.02-3.06-.29-4.13-9.9-9.03-23.3-14.38-35.53-14.38-28.97,0-52.27,24.48-52.27,55.08s23.3,54.77,52.27,54.77c21.11,0,36.11-9.94,36.11-9.94.58-.46,1.16-1.68,1.16-2.45l-.15-41.16c0-1.53-1.17-2.91-2.62-2.91Z"/>
  <path class="st0" d="M2634.02,640.87h-17.47c-1.6,0-2.77,1.38-2.77,2.91v54.31h-.15l-58.09-58.75h-3.64c-1.46,0-2.77,1.22-2.77,2.75l.15,102.97c0,1.53,1.31,2.91,2.77,2.91h17.33c1.6,0,2.77-1.38,2.77-2.91v-57.07h.15l57.51,60.74c.29.31,1.46.76,1.89.76h2.33c1.46,0,2.77-1.22,2.77-2.75v-102.97c0-1.53-1.31-2.91-2.77-2.91Z"/>
</svg>