<?xml version="1.0" encoding="UTF-8"?>
<svg id="Layer_1" xmlns="http://www.w3.org/2000/svg" version="1.1" viewBox="0 0 3155.7 806.6">
  <!-- Generator: Adobe Illustrator 30.3.0, SVG Export Plug-In . SVG Version: 2.1.3 Build 182)  -->
  <defs>
    <style>
      .st0 {
        fill: #fff;
      }
    </style>
  </defs>
  <g>
    <path class="st0" d="M400.2,434.4c-25.1,56-48.7,88-128,121.8-35.7,133.4-78.5,183.9-147.9,191.7-37.9,4.2-79-16.2-84.3-63.5-9.4-84.1,96.8-124.2,184.8-151.6l80.9-290.6c-62.9,37.4-164.5,86-156.8,154.9,3.5,31.5,28,50.1,58.4,46.7l5.1,45.7c-59.9,6.7-104.1-31-110-88.9-12.1-108.3,149.8-174.3,224.6-219.9,14.1-26.6,37.2-47.8,65.6-51l13.7,32s-25.9,10.9-39.6,55l-81.8,292.4c52-25.5,76.3-55.4,90.7-88.4,7.9-.9,20.9,6.2,24.4,13.8h0ZM211.9,578.4c-60.4,21.1-130.8,49.2-125.3,98.1,1.9,17.3,15.4,28.1,34.8,25.9,40-4.5,66.7-46.3,90.5-124h0Z"/>
    <path class="st0" d="M674.5,411.9c-34.6,74.1-76.8,139.8-131.1,144.5-48,4.1-51.6-38.1-51.6-38.1,0,0-28,44.9-70.7,48.5-33.7,2.9-52.8-21.5-55.6-54.7-4.8-56.4,30.1-232.5,119.7-240.2,44.3-3.8,55.8,38.2,55.8,38.2l11.7-37.1,55.4-4.7-56.5,183.8c-17,55.6-9,68.8,4.7,67.6,26.4-2.2,63.6-58,94.2-122.2,7.9-.7,20.8,6.7,24.1,14.4h0ZM493.2,465.6l34.5-111.8s-2.7-38-29.1-35.8c-49.6,4.2-84.8,139.5-81.2,181.1,1.3,14.8,7.6,21.1,19.2,20.1,31.1-2.7,56.5-53.7,56.5-53.7h0Z"/>
    <path class="st0" d="M651,398c13.2-26.3,27.8-62.2,41-97-10.2-9.4-17.7-20.1-18.5-32.7-1.6-24.8,22.2-50.7,43.4-59l29.8,18.2-17,48.3c22.4,19.2,65.6,39.2,67.8,73.1.4,6.3-.6,15.4-4.6,27.3l-20,60.1c-20.4,61.8-6.7,68.3,1.7,67.8,20.1-1.3,46.5-43.3,85.1-119.5,7.9-.5,20.6,7.2,23.8,14.9-36.1,72.8-71.7,137.7-121.9,140.9-41.7,2.7-68.7-29-37-122.2l16.5-48.8c3.5-10.8,3.7-16.1,3.6-18.3-.7-10.6-11.8-18.9-29.6-32-11.4,29.4-24.6,62-40.1,93.8-7.9.5-20.6-7.2-23.8-14.9h0Z"/>
    <path class="st0" d="M1110.4,389.4c-33.5,65.1-90,137.1-174.6,141-53.4,2.5-83.7-23.6-86.2-76-3.5-76.1,52.7-211.1,141.5-215.2,51.8-2.4,80.3,41.8,52.6,106.7-24.8,58.9-69.6,74.7-137.6,70.5,0,0-27,81.2,40.2,78.1,51.3-2.4,104.1-51.4,140.6-120.4,7.9-.4,20.5,7.5,23.5,15.3h0ZM914.3,385.8c51.2,6.6,70-21.8,82.3-52,14.3-34.6,11.5-49.8-7-48.9-46,2.1-75.3,100.9-75.3,100.9h0Z"/>
    <path class="st0" d="M1259.4,385.4c-37.9,71.6-87.3,135.6-145.4,137.5-44.9,1.4-71.3-27.4-36.2-123.2l58.5-159.1-48.7,1.6,10.7-28.9,48.7-1.6,28.2-77.1,55.5-1.8-28.2,77.1,46.5-1.5-10.7,28.9-46.5,1.5-66.2,180.5c-22.4,61-10,68.1,2.2,67.7,31.2-1,73.5-52.6,108.5-117.3,7.9-.2,20.4,7.8,23.3,15.7h0Z"/>
    <path class="st0" d="M1508.7,328.1c98.6,47.2,172.4-37.7,172.1-113.9-.2-58.2-43.3-114.7-119.5-114.4-98.9.4-154.7,86.3-154.5,144.5,0,27,12.9,49.7,12.9,49.7l-37.5,28.2s-20.8-30.6-20.9-75.6c-.3-92.6,78.1-189.7,200.3-190.2,100.5-.4,170.6,68.7,171,155.4.4,107.9-103.4,215.8-238.1,151.7l-60.3,151.6-55.6.2,125.8-315.9c14.7-36.6,46.8-69,84.9-69.1l10.2,33.3s-28.5,10.2-46.4,53.6l-44.6,110.8h0Z"/>
    <path class="st0" d="M1963.4,386.6c-37.6,62.8-98.7,131.1-183.3,129.6-53.4-1-82-29-81.1-81.4,1.3-76.2,66.1-207.3,155-205.7,51.8.9,77.5,46.9,45.7,109.8-28.5,57.2-74.3,70.1-141.9,61.5,0,0-32.1,79.3,35.1,80.5,51.3.9,107.2-44.7,148-111.1,7.9.1,20,8.8,22.5,16.8h0ZM1767.9,370.4c50.6,9.9,71.2-17.2,85.5-46.6,16.5-33.6,14.6-49-3.9-49.3-46-.8-81.6,95.9-81.6,95.9h0Z"/>
    <path class="st0" d="M2190.5,395c-38.7,62.2-100.9,129.4-185.5,126.4-53.4-1.9-81.5-30.4-79.7-82.7,2.7-76.1,69.7-206.2,158.5-203.1,51.8,1.8,76.7,48.2,43.8,110.6-29.5,56.7-75.5,68.8-142.9,59.1,0,0-33.5,78.8,33.7,81.1,51.3,1.8,107.9-42.8,149.9-108.6,7.9.3,19.8,9.2,22.2,17.2h0ZM1995.3,375.5c50.4,10.8,71.5-16,86.3-45.2,17-33.3,15.5-48.7-3-49.4-46-1.6-83.2,94.5-83.2,94.5Z"/>
    <path class="st0" d="M2168.8,378.1c16.1-24.6,34.8-58.6,51.9-91.6-9-10.5-15.3-22-14.6-34.7,1.3-24.8,27.9-47.8,49.9-53.6l27.5,21.6-22.5,46c20.1,21.7,60.6,46.6,58.8,80.4-.3,6.3-2.4,15.2-7.7,26.6l-26.8,57.4c-27.4,59-14.6,67.1-6.2,67.5,20.1,1,51.2-37.6,98.4-108.8,7.9.4,19.6,9.5,21.9,17.6-44.4,68.1-87.2,128.4-137.4,125.8-41.7-2.2-64.8-36.8-22.6-125.7l22-46.5c4.8-10.4,5.6-15.6,5.7-17.7.6-10.6-9.5-20.1-25.7-35.2-14.7,27.8-31.7,58.7-50.7,88.5-7.9-.4-19.6-9.5-21.9-17.6h0Z"/>
    <path class="st0" d="M2378.1,389.2c26.6-39,65.4-102.1,88.5-145.1l43.1,21.5c-23.5,72.1-18.4,158.9-20,190.1-1.1,15.3-3.6,29.5-8.7,41.8,29.5-12.8,63.7-55.5,90.3-95.1,7.9.5,19.5,9.8,21.6,17.9-43.2,64.9-90.4,126.9-175.9,121-47-3.2-67.7-33.3-70.4-40.9l30.3-16c8.8,11.2,18.5,15.6,29.1,16.3,20.6,1.4,32.6-11.5,36-61.1,1.9-26.9,1.4-66.7,5.3-107.8-15.6,26-32.8,52.9-47.6,75.2-7.9-.5-19.5-9.8-21.6-17.9h0Z"/>
    <path class="st0" d="M2852,443.7c-36.5,52.5-85.9,82.1-137.9,63.7-27.2,31.1-61.4,51.9-100.4,48.4-39-3.5-66.9-29.9-62.4-81,6-68,72.6-207.6,169.1-199,39,3.5,66.4,29.8,61.9,80.4-2.9,32.7-20,81.6-46.5,122.3,27.4,8.3,61.7-6.7,95-53.2,7.9.7,19.3,10.2,21.2,18.4h0ZM2672.8,482c-5.3-6.3-8.3-14.5-7.4-24,1.7-19.5,20-33.8,39.7-28.9,15.5-31,26.9-63,28.6-83,2-22.1-6.7-31.9-18.9-33-46.4-4.1-110.7,122.4-115.1,171.4-1.8,20,6.1,32.9,20.3,34.2,16.4,1.5,35.2-13.9,52.7-36.8h0Z"/>
    <path class="st0" d="M3116.2,474.5c-50.4,68.3-103.9,121.8-156.5,115.8-43.6-5-64.2-39.3-16.4-127l26.9-49.6c13.5-25.1,23.6-43.1,24.5-51.5.8-7.4-5-12.3-13.4-13.2-14.2-1.6-40.9,8.1-66.9,31.2l-101.2,186.6-55.2-6.3,141-260.3,55.2,6.3-14.2,26.1c29.6-21.6,56.5-28.2,77-25.8,22.6,2.6,39.4,18.4,36.4,45.2-1.8,15.8-10.5,36.1-24.7,62.7l-41.1,75.2c-32.3,59.2-17.7,66.2-9.3,67.1,26.8,3.1,74.3-44.2,117-101.1,7.9.9,19,10.7,20.7,18.9h0Z"/>
  </g>
  <g>
    <path class="st0" d="M546.6,634c0-1.7,1.3-3.2,2.9-3.2h39c30.8,0,56.1,26.4,56.1,58.6s-25.3,59-56.1,59h-39c-1.6,0-2.9-1.5-2.9-3.2v-111.2ZM586.9,723.5c18.1,0,31.2-15,31.2-34.1s-13.1-33.9-31.2-33.9h-15.3v68h15.3Z"/>
    <path class="st0" d="M672.1,634c0-1.7,1.3-3.2,3-3.2h66.2c1.8,0,3,1.5,3,3.2v18.3c0,1.7-1.3,3.2-3,3.2h-44.3v20.8h36.5c1.6,0,3,1.5,3,3.2v18.3c0,1.8-1.4,3.2-3,3.2h-36.5v22.7h44.3c1.8,0,3,1.5,3,3.2v18.3c0,1.7-1.3,3.2-3,3.2h-66.2c-1.8,0-3-1.5-3-3.2v-111.2h0Z"/>
    <path class="st0" d="M767.4,732.4l7.5-13.9c1.3-2.2,4.3-1.8,5.4-1,.6.3,12.2,9.2,22.7,9.2s11-4.2,11-10.1-5.6-12.4-16.5-17c-13.8-5.7-31-17-31-37.1s12.3-33.4,36.9-33.4,29.4,8.9,34.2,12.6c1.9,1.2,1.6,4.2,1,5.4l-8.2,12.9c-1.1,1.8-4,3.4-5.4,2.2-1.4-.8-13.1-10.1-22.9-10.1s-10.1,4-10.1,8.6,4.8,10.9,17.4,16.3c12.5,5.2,32.3,15.5,32.3,38.3s-14.2,34.8-37.7,34.8-32.3-9.1-36-12.9c-1.6-1.7-2.1-2.3-.8-4.7h0Z"/>
    <path class="st0" d="M869.4,634c0-1.7,1.4-3.2,3-3.2h19.2c1.6,0,3,1.5,3,3.2v111.2c0,1.7-1.4,3.2-3,3.2h-19.2c-1.6,0-3-1.5-3-3.2v-111.2Z"/>
    <path class="st0" d="M979.5,629.3c13.4,0,28.1,5.9,39,15.8,1.4,1.2,1.6,3.2.3,4.5l-12.6,14.1c-1.3,1.2-3,1.2-4.3.2-6.1-5.9-13.1-8.1-20.9-8.1-17.4,0-31.5,15.5-31.5,33.9s14.2,33.4,31.7,33.4,9.4-.7,14.2-2.7v-9.7h-10.1c-1.8,0-3-1.3-3-3v-16.6c0-1.8,1.3-3.2,3-3.2h32.1c1.6,0,2.9,1.5,2.9,3.2l.2,45.2c0,.8-.6,2.2-1.3,2.7,0,0-16.5,10.9-39.7,10.9s-57.4-26.5-57.4-60.1,25.6-60.5,57.4-60.5h0Z"/>
    <path class="st0" d="M1050.2,632.2c0-1.7,1.4-3,3-3h4l63.8,64.5h.2v-59.6c0-1.7,1.3-3.2,3-3.2h19.2c1.6,0,3,1.5,3,3.2v113c0,1.7-1.4,3-3,3h-2.6c-.5,0-1.8-.5-2.1-.8l-63.2-66.7h-.2v62.7c0,1.7-1.3,3.2-3,3.2h-19c-1.6,0-3-1.5-3-3.2l-.2-113h0Z"/>
    <path class="st0" d="M1244.6,684.4v-.5l-3.2-3.5c-6.4-7.1-10.6-14.3-10.6-24s10.6-27.2,31-27.2,32,12.4,32,28-17.4,28.4-17.4,29.7l14.4,15.5c2.1-3.5,4.2-8.9,5.3-12.9,1-3.5,1.9-6.2,6.2-4.5l11.7,4.4c4.5,1.7,2.7,5.7,2.1,7.7-3.8,11.8-10.1,20.7-10.1,21l13.6,13.3c2.1,2,3.7,3.5-.3,7.7l-8.9,9.6c-1.9,1.8-4.6,2.2-7.2-.5l-10.4-10.9s-10.9,12.9-34.8,12.9-35.2-14.5-35.2-31.9,21.9-33.8,21.9-33.8h0ZM1260.6,729.1c12.5,0,17.3-8.6,17.3-8.6l-20.9-23.3s-11.3,4-11.3,17.6,6.6,14.3,15,14.3h0ZM1273.4,658.7c0-5.7-5-10.8-11.8-10.8s-9.4,3.9-9.4,8.2,3.2,8.2,7.3,13.1l3.5,3.7s10.4-4.9,10.4-14.3h0Z"/>
    <path class="st0" d="M1388.3,634c0-1.7,1.3-3.2,2.9-3.2h39c30.8,0,56.1,26.4,56.1,58.6s-25.3,59-56.1,59h-39c-1.6,0-2.9-1.5-2.9-3.2v-111.2ZM1428.6,723.5c18.1,0,31.2-15,31.2-34.1s-13.1-33.9-31.2-33.9h-15.3v68h15.3Z"/>
    <path class="st0" d="M1513.8,634c0-1.7,1.3-3.2,3-3.2h66.2c1.8,0,3,1.5,3,3.2v18.3c0,1.7-1.3,3.2-3,3.2h-44.3v20.8h36.4c1.6,0,3,1.5,3,3.2v18.3c0,1.8-1.4,3.2-3,3.2h-36.4v22.7h44.3c1.8,0,3,1.5,3,3.2v18.3c0,1.7-1.3,3.2-3,3.2h-66.2c-1.8,0-3-1.5-3-3.2v-111.2h0Z"/>
    <path class="st0" d="M1601.1,635.2c-1-2.2.3-4.4,2.7-4.4h21.3c1.3,0,2.4,1,2.7,1.8l26.4,61.3h1l26.4-61.3c.3-.8,1.4-1.8,2.7-1.8h21.3c2.4,0,3.7,2.2,2.7,4.4l-50.2,113c-.5,1-1.4,1.8-2.7,1.8h-1.6c-1.3,0-2.2-.8-2.7-1.8l-49.9-113Z"/>
    <path class="st0" d="M1729.3,634c0-1.7,1.3-3.2,3-3.2h66.2c1.8,0,3,1.5,3,3.2v18.3c0,1.7-1.3,3.2-3,3.2h-44.3v20.8h36.4c1.6,0,3,1.5,3,3.2v18.3c0,1.8-1.4,3.2-3,3.2h-36.4v22.7h44.3c1.8,0,3,1.5,3,3.2v18.3c0,1.7-1.3,3.2-3,3.2h-66.2c-1.8,0-3-1.5-3-3.2v-111.2h0Z"/>
    <path class="st0" d="M1830.9,634c0-1.7,1.3-3.2,3-3.2h19c1.6,0,3,1.5,3,3.2v89.7h38.1c1.8,0,3,1.5,3,3.2v18.3c0,1.7-1.3,3.2-3,3.2h-60.1c-1.8,0-3-1.5-3-3.2v-111.2h0Z"/>
    <path class="st0" d="M1969.2,629.1c32,0,57.6,27,57.6,60.6s-25.6,60.3-57.6,60.3-57.4-26.7-57.4-60.3,25.4-60.6,57.4-60.6ZM1969.2,723.2c17.6,0,32-15.1,32-33.4s-14.4-33.8-32-33.8-31.8,15.3-31.8,33.8,14.4,33.4,31.8,33.4Z"/>
    <path class="st0" d="M2054.1,634c0-1.7,1.3-3.2,3-3.2h38.5c19.7,0,35.8,16.8,35.8,37.1s-16.1,37.8-35.6,37.8h-16.8v39.5c0,1.7-1.4,3.2-3,3.2h-18.9c-1.8,0-3-1.5-3-3.2v-111.2h0ZM2094.2,681.2c6.9,0,12.6-5.7,12.6-13.3s-5.8-12.4-12.6-12.4h-15.2v25.7h15.2Z"/>
    <path class="st0" d="M2165.7,631.8c.2-1.5,1.6-2.7,2.9-2.7h2.6c.8,0,2.2.7,2.7,1.7l37.1,72.6h.3l37.1-72.6c.5-1,1.9-1.7,2.7-1.7h2.6c1.3,0,2.7,1.2,2.9,2.7l18.1,112.9c.3,2.2-1.1,3.7-3,3.7h-18.9c-1.4,0-2.9-1.3-3-2.7l-7.2-51.9h-.3l-26.9,54.4c-.5,1-1.9,1.8-2.7,1.8h-2.9c-1,0-2.2-.8-2.7-1.8l-27-54.4h-.3l-7,51.9c-.2,1.3-1.4,2.7-3,2.7h-18.9c-1.9,0-3.4-1.5-3-3.7l18.1-112.9h0Z"/>
    <path class="st0" d="M2303,634c0-1.7,1.3-3.2,3-3.2h66.2c1.8,0,3,1.5,3,3.2v18.3c0,1.7-1.3,3.2-3,3.2h-44.3v20.8h36.4c1.6,0,3,1.5,3,3.2v18.3c0,1.8-1.4,3.2-3,3.2h-36.4v22.7h44.3c1.8,0,3,1.5,3,3.2v18.3c0,1.7-1.3,3.2-3,3.2h-66.2c-1.8,0-3-1.5-3-3.2v-111.2h0Z"/>
    <path class="st0" d="M2404.5,632.2c0-1.7,1.4-3,3-3h4l63.8,64.5h.2v-59.6c0-1.7,1.3-3.2,3-3.2h19.2c1.6,0,3,1.5,3,3.2v113c0,1.7-1.4,3-3,3h-2.6c-.5,0-1.8-.5-2.1-.8l-63.1-66.7h-.2v62.7c0,1.7-1.3,3.2-3,3.2h-19c-1.6,0-3-1.5-3-3.2l-.2-113h0Z"/>
    <path class="st0" d="M2550.6,655.5h-22.9c-1.8,0-3-1.5-3-3.2v-18.3c0-1.7,1.3-3.2,3-3.2h71c1.8,0,3,1.5,3,3.2v18.3c0,1.7-1.3,3.2-3,3.2h-22.9v89.7c0,1.7-1.4,3.2-3,3.2h-19.2c-1.6,0-3-1.5-3-3.2v-89.7h0Z"/>
  </g>
</svg>