<svg width="27" height="22" viewBox="0 0 27 22" fill="none" xmlns="http://www.w3.org/2000/svg">
<path d="M9.73494 2.52054C10.1077 1.83294 10.6592 1.25877 11.3312 0.858648C12.0032 0.458528 12.7708 0.247314 13.5529 0.247314C14.335 0.247314 15.1026 0.458528 15.7747 0.858648C16.4467 1.25877 16.9982 1.83294 17.3709 2.52054C17.8268 2.03653 18.4191 1.70253 19.0692 1.56285C19.7192 1.42317 20.3964 1.4844 21.0109 1.73842C21.6254 1.99244 22.1482 2.42725 22.5099 2.98518C22.8716 3.54312 23.0551 4.19783 23.0362 4.86248C23.0173 5.52713 22.7968 6.17033 22.4039 6.70678C22.011 7.24324 21.4644 7.64759 20.8364 7.86624C20.2085 8.08488 19.5289 8.10747 18.8878 7.93103C18.2468 7.75458 17.6744 7.38743 17.2468 6.87826C16.8574 7.50747 16.3136 8.02674 15.6671 8.38679C15.0207 8.74683 14.2929 8.93572 13.5529 8.93553C12.8133 8.93564 12.0858 8.74684 11.4396 8.38703C10.7934 8.02721 10.2497 7.50831 9.86026 6.8795C9.43254 7.38851 8.86022 7.75549 8.21917 7.93179C7.57811 8.10809 6.89862 8.08538 6.27077 7.86667C5.64292 7.64797 5.09637 7.2436 4.70358 6.70718C4.3108 6.17076 4.09033 5.52762 4.07141 4.86304C4.05249 4.19845 4.23602 3.54382 4.59765 2.98592C4.95929 2.42802 5.48195 1.99322 6.09634 1.73915C6.71074 1.48509 7.38784 1.42377 8.03788 1.56331C8.68793 1.70286 9.27896 2.03669 9.73494 2.52054ZM10.5216 3.93506C10.6496 4.42113 10.6645 4.93008 10.565 5.42279C10.7468 6.07606 11.1375 6.65182 11.6774 7.06203C12.2173 7.47225 12.8767 7.69434 13.5548 7.69434C14.2329 7.69434 14.8923 7.47225 15.4322 7.06203C15.9721 6.65182 16.3628 6.07606 16.5445 5.42279C16.4449 4.92974 16.4594 4.42044 16.5867 3.93382C16.4363 3.24136 16.0534 2.62124 15.5017 2.17653C14.95 1.73182 14.2628 1.48931 13.5542 1.48931C12.8456 1.48931 12.1583 1.73182 11.6066 2.17653C11.0549 2.62124 10.672 3.2426 10.5216 3.93506ZM9.24854 4.02316C9.07332 3.57647 8.74615 3.2059 8.32462 2.97667C7.90309 2.74744 7.41421 2.67424 6.94403 2.76996C6.47384 2.86567 6.05248 3.12417 5.75411 3.49995C5.45574 3.87572 5.29948 4.3447 5.31283 4.82435C5.32617 5.30399 5.50828 5.76355 5.82708 6.12216C6.14589 6.48076 6.58097 6.71542 7.05575 6.78484C7.53053 6.85426 8.01458 6.75399 8.42271 6.50167C8.83084 6.24935 9.1369 5.86116 9.28701 5.40542C9.20045 4.94968 9.18746 4.48301 9.24854 4.02316ZM17.8213 5.40418C17.9713 5.86038 18.2774 6.24904 18.6857 6.50173C19.0941 6.75443 19.5785 6.85496 20.0537 6.78563C20.5289 6.71629 20.9644 6.48154 21.2835 6.1227C21.6026 5.76385 21.7849 5.30393 21.7983 4.8239C21.8116 4.34387 21.6552 3.87452 21.3566 3.49847C21.0579 3.12242 20.6362 2.86379 20.1656 2.76811C19.695 2.67244 19.2057 2.74585 18.784 2.97542C18.3622 3.205 18.0349 3.57602 17.8598 4.02316C17.9207 4.4826 17.9077 4.94884 17.8213 5.40418ZM4.80644 8.68364C5.237 8.56949 5.64399 8.71094 5.92441 8.91443C6.03609 8.99509 6.18995 9.09435 6.37731 9.18493C6.52075 9.25925 6.62954 9.3866 6.68055 9.53988C6.73156 9.69317 6.72077 9.86031 6.65046 10.0058C6.58016 10.1512 6.4559 10.2635 6.30409 10.3188C6.15228 10.374 5.98491 10.3679 5.83756 10.3017C5.61285 10.1935 5.39817 10.0656 5.19606 9.91949C5.17593 9.90511 5.15376 9.89381 5.13029 9.88599L5.12161 9.88475C4.95431 9.92941 4.78838 9.97906 4.62404 10.0336L3.77285 10.3116C3.45542 10.4149 3.16852 10.5952 2.93772 10.8364C2.70693 11.0776 2.53942 11.3722 2.45014 11.6938L2.09899 14.2363C2.02951 14.7363 2.2938 15.111 2.66977 15.2004C2.94688 15.2682 3.28314 15.3344 3.67855 15.3989C3.75904 15.4119 3.83618 15.4407 3.90556 15.4836C3.97494 15.5264 4.0352 15.5825 4.0829 15.6486C4.1306 15.7148 4.16481 15.7897 4.18357 15.869C4.20233 15.9484 4.20528 16.0306 4.19224 16.1111C4.17921 16.1916 4.15044 16.2688 4.10759 16.3381C4.06475 16.4075 4.00865 16.4678 3.94252 16.5155C3.87638 16.5632 3.8015 16.5974 3.72214 16.6162C3.64278 16.6349 3.56051 16.6379 3.48002 16.6248C3.1118 16.5662 2.74592 16.4938 2.38314 16.4077C1.27261 16.1434 0.729138 15.08 0.86935 14.0663L1.23167 11.4531L1.23911 11.4196C1.37499 10.8883 1.64307 10.4001 2.01839 10.0002C2.39371 9.60039 2.86407 9.302 3.38571 9.13282L4.23567 8.85363C4.42593 8.79159 4.61618 8.73493 4.80644 8.68364ZM22.4619 8.68364C22.2703 8.63674 22.0707 8.63312 21.8775 8.67304C21.6844 8.71296 21.5025 8.79542 21.3452 8.91443C21.2335 8.99509 21.0797 9.09435 20.8923 9.18493C20.7489 9.25925 20.6401 9.3866 20.5891 9.53988C20.5381 9.69317 20.5489 9.86031 20.6192 10.0058C20.6895 10.1512 20.8137 10.2635 20.9655 10.3188C21.1173 10.374 21.2847 10.3679 21.4321 10.3017C21.6568 10.1935 21.8714 10.0656 22.0736 9.91949C22.0937 9.90511 22.1159 9.89381 22.1393 9.88599L22.1455 9.88475H22.148C22.3159 9.92859 22.4818 9.97822 22.6456 10.0336L23.4968 10.3116C24.1494 10.5262 24.6445 11.0486 24.8195 11.6938L25.1706 14.2363C25.2401 14.7363 24.9771 15.111 24.5999 15.2004C24.2662 15.2792 23.9297 15.3454 23.5911 15.3989C23.4285 15.4252 23.2831 15.5151 23.1867 15.6486C23.0904 15.7822 23.0511 15.9486 23.0774 16.1111C23.1037 16.2737 23.1935 16.4192 23.3271 16.5155C23.4607 16.6118 23.627 16.6512 23.7896 16.6248C24.2131 16.5545 24.5788 16.4821 24.8865 16.4077C25.997 16.1434 26.5405 15.08 26.4003 14.0663L26.038 11.4531L26.0305 11.4196C25.8946 10.8883 25.6266 10.4001 25.2512 10.0002C24.8759 9.60039 24.4055 9.302 23.8839 9.13282L23.034 8.85363C22.8452 8.79191 22.6537 8.73522 22.4619 8.68364Z" fill="#C1C1C1"/>
<path d="M15.7736 10.6974C16.2191 10.4021 16.8407 10.1887 17.4822 10.3686C17.6758 10.4232 17.8689 10.4823 18.0617 10.546L19.2516 10.9369C19.942 11.1611 20.5646 11.5562 21.0614 12.0855C21.5582 12.6149 21.9131 13.2612 22.0931 13.9645L22.1017 13.998L22.6055 17.641C22.7879 18.9563 22.0844 20.3087 20.6773 20.6438C19.2504 20.9837 16.94 21.3436 13.5513 21.3436C10.1639 21.3436 7.85227 20.9837 6.42534 20.6438C5.01826 20.3087 4.31472 18.9563 4.49712 17.641L5.00089 13.998L5.00957 13.9645C5.18957 13.2612 5.54445 12.6149 6.04124 12.0855C6.53802 11.5562 7.16058 11.1611 7.85103 10.9369L9.04221 10.546C9.23412 10.4823 9.42686 10.4232 9.62042 10.3686C10.2619 10.1874 10.8836 10.4021 11.329 10.6974C11.8043 11.0126 12.586 11.3997 13.5513 11.3997C14.5167 11.3997 15.2996 11.0126 15.7736 10.6974ZM17.1447 11.5623C16.9685 11.5126 16.7228 11.5573 16.4598 11.731C15.8679 12.1243 14.8467 12.6405 13.5513 12.6405C12.2559 12.6405 11.2347 12.1243 10.6429 11.731C10.381 11.5573 10.1341 11.5126 9.95792 11.5623C9.78008 11.6119 9.60388 11.6657 9.42934 11.7236L8.23816 12.1157C7.75209 12.2739 7.31311 12.5508 6.96086 12.9212C6.60861 13.2917 6.3542 13.744 6.2206 14.2374L5.72552 17.811C5.61385 18.6138 6.03944 19.2751 6.7132 19.4364C8.03715 19.7529 10.252 20.1028 13.5513 20.1028C16.8506 20.1028 19.0655 19.7529 20.3894 19.4364C21.0632 19.2751 21.4875 18.6138 21.3771 17.811L20.882 14.2374C20.7484 13.744 20.494 13.2917 20.1418 12.9212C19.7895 12.5508 19.3505 12.2739 18.8645 12.1157L17.6733 11.7248C17.4987 11.6669 17.3226 11.6131 17.1447 11.5635" fill="#C1C1C1"/>
</svg>
