<svg width="36" height="36" viewBox="0 0 36 36" fill="none" xmlns="http://www.w3.org/2000/svg">
<path fill-rule="evenodd" clip-rule="evenodd" d="M27.9393 0.244507H7.89023C3.66056 0.244507 0.226562 3.67046 0.226562 7.89023V27.8924C0.226562 32.1121 3.66056 35.5381 7.89023 35.5381H27.9393C32.169 35.5381 35.603 32.1121 35.603 27.8924V7.89023C35.603 3.67046 32.169 0.244507 27.9393 0.244507ZM20.926 4.65218H24.8102L31.9295 9.05996L24.8102 31.1302H20.926L24.1611 10.9609L17.0419 31.1302H13.1577L16.7173 12.2143L9.2735 31.1302H5.38932L9.2735 13.4782L5.38932 4.65218H9.2735L16.7173 11.5876L13.1577 4.65218H17.0419L24.1611 10.3238L20.926 4.65218Z" fill="#E6E6E6"/>
</svg>
