<svg width="55" height="32" viewBox="0 0 55 32" fill="none" xmlns="http://www.w3.org/2000/svg">
<path d="M27.5716 31.4874C25.2098 31.4304 23.2613 30.4027 22.0172 28.2574C20.7419 26.0398 20.7974 23.7696 22.1571 21.6067C25.3942 16.4593 28.6736 11.3404 31.9329 6.20827C32.5994 5.15862 33.2504 4.09364 33.948 3.06371C34.8742 1.65504 36.3213 0.658585 37.9812 0.286539C39.6411 -0.0855082 41.3827 0.196244 42.8351 1.0718C45.9034 2.93662 46.9298 6.81526 45.0191 9.87216C41.1132 16.1467 37.1518 22.3905 33.1349 28.6036C31.8973 30.5254 30.02 31.4523 27.5716 31.4874Z" fill="#D9D9D9"/>
<path d="M7.285 31.4874C4.90105 31.4304 2.96367 30.3567 1.74392 28.2201C0.486401 26.0025 0.566385 23.7279 1.93055 21.5651C5.4128 16.0546 8.91059 10.5522 12.4239 5.05781C12.8683 4.34782 13.3127 3.6203 13.7881 2.93222C14.7522 1.55413 16.2223 0.600209 17.887 0.27243C19.5518 -0.0553496 21.2805 0.268745 22.7072 1.1761C24.1339 2.08345 25.1466 3.50282 25.5309 5.1337C25.9151 6.76458 25.6407 8.47893 24.7658 9.91379C20.8733 16.113 16.9275 22.2904 12.9794 28.4612C11.6974 30.4618 9.81115 31.4523 7.285 31.4874Z" fill="#D9D9D9"/>
<path d="M47.9871 18.9224C51.5796 18.9399 54.4879 21.7558 54.4813 25.2093C54.4813 28.7154 51.4952 31.5422 47.8693 31.4984C44.2434 31.4546 41.3862 28.6694 41.3906 25.2005C41.3951 21.6812 44.3145 18.9005 47.9871 18.9224Z" fill="#D9D9D9"/>
</svg>
