<svg width="27" height="27" viewBox="0 0 27 27" fill="none" xmlns="http://www.w3.org/2000/svg">
<mask id="path-1-inside-1_602_205" fill="white">
<path d="M13.5569 17.0417C12.8649 17.0417 12.1885 16.8365 11.6132 16.4521C11.0379 16.0677 10.5895 15.5213 10.3247 14.882C10.0599 14.2428 9.99062 13.5393 10.1256 12.8607C10.2606 12.182 10.5938 11.5587 11.0831 11.0694C11.5723 10.5801 12.1957 10.2469 12.8744 10.1119C13.553 9.97694 14.2564 10.0462 14.8957 10.311C15.535 10.5758 16.0814 11.0242 16.4658 11.5996C16.8502 12.1749 17.0554 12.8513 17.0554 13.5432C17.0542 14.4707 16.6853 15.3599 16.0294 16.0158C15.3736 16.6716 14.4844 17.0406 13.5569 17.0417ZM3.936 17.0417C3.24407 17.0417 2.56767 16.8365 1.99234 16.4521C1.41701 16.0677 0.968603 15.5213 0.703809 14.882C0.439016 14.2428 0.369734 13.5393 0.504724 12.8607C0.639715 12.182 0.972915 11.5587 1.46219 11.0694C1.95146 10.5801 2.57484 10.2469 3.25348 10.1119C3.93212 9.97694 4.63556 10.0462 5.27482 10.311C5.91409 10.5758 6.46048 11.0242 6.8449 11.5996C7.22932 12.1749 7.43451 12.8513 7.43451 13.5432C7.43335 14.4707 7.06439 15.3599 6.40854 16.0158C5.7527 16.6716 4.86351 17.0406 3.936 17.0417ZM3.936 11.794C3.59003 11.794 3.25184 11.8966 2.96417 12.0888C2.67651 12.281 2.4523 12.5542 2.31991 12.8738C2.18751 13.1934 2.15287 13.5452 2.22036 13.8845C2.28786 14.2238 2.45446 14.5355 2.6991 14.7801C2.94373 15.0248 3.25542 15.1914 3.59474 15.2589C3.93406 15.3263 4.28578 15.2917 4.60541 15.1593C4.92505 15.0269 5.19824 14.8027 5.39045 14.515C5.58266 14.2274 5.68526 13.8892 5.68526 13.5432C5.68526 13.0793 5.50096 12.6344 5.17291 12.3063C4.84486 11.9783 4.39993 11.794 3.936 11.794ZM8.30913 26.6626C7.61719 26.6626 6.94079 26.4574 6.36547 26.073C5.79014 25.6886 5.34173 25.1422 5.07694 24.5029C4.81214 23.8636 4.74286 23.1602 4.87785 22.4816C5.01284 21.8029 5.34604 21.1796 5.83532 20.6903C6.32459 20.201 6.94797 19.8678 7.62661 19.7328C8.30525 19.5978 9.00868 19.6671 9.64795 19.9319C10.2872 20.1967 10.8336 20.6451 11.218 21.2204C11.6025 21.7958 11.8076 22.4722 11.8076 23.1641C11.8065 24.0916 11.4375 24.9808 10.7817 25.6366C10.1258 26.2925 9.23664 26.6614 8.30913 26.6626ZM8.30913 21.4148C7.96316 21.4148 7.62496 21.5174 7.3373 21.7096C7.04964 21.9019 6.82543 22.1751 6.69303 22.4947C6.56064 22.8143 6.526 23.166 6.59349 23.5054C6.66099 23.8447 6.82759 24.1564 7.07223 24.401C7.31686 24.6456 7.62855 24.8122 7.96787 24.8797C8.30719 24.9472 8.65891 24.9126 8.97854 24.7802C9.29818 24.6478 9.57137 24.4236 9.76358 24.1359C9.95579 23.8483 10.0584 23.5101 10.0584 23.1641C10.0584 22.7002 9.87409 22.2552 9.54604 21.9272C9.21799 21.5991 8.77306 21.4148 8.30913 21.4148ZM18.8046 26.6626C18.1127 26.6626 17.4363 26.4574 16.861 26.073C16.2857 25.6886 15.8372 25.1422 15.5724 24.5029C15.3077 23.8636 15.2384 23.1602 15.3734 22.4816C15.5084 21.8029 15.8416 21.1796 16.3308 20.6903C16.8201 20.201 17.4435 19.8678 18.1221 19.7328C18.8008 19.5978 19.5042 19.6671 20.1435 19.9319C20.7827 20.1967 21.3291 20.6451 21.7135 21.2204C22.098 21.7958 22.3031 22.4722 22.3031 23.1641C22.302 24.0916 21.933 24.9808 21.2772 25.6366C20.6213 26.2925 19.7321 26.6614 18.8046 26.6626ZM18.8046 21.4148C18.4587 21.4148 18.1205 21.5174 17.8328 21.7096C17.5451 21.9019 17.3209 22.1751 17.1885 22.4947C17.0561 22.8143 17.0215 23.166 17.089 23.5054C17.1565 23.8447 17.3231 24.1564 17.5677 24.401C17.8124 24.6456 18.1241 24.8122 18.4634 24.8797C18.8027 24.9472 19.1544 24.9126 19.4741 24.7802C19.7937 24.6478 20.0669 24.4236 20.2591 24.1359C20.4513 23.8483 20.5539 23.5101 20.5539 23.1641C20.5539 22.7002 20.3696 22.2552 20.0415 21.9272C19.7135 21.5991 19.2686 21.4148 18.8046 21.4148ZM23.1778 17.0417C22.4858 17.0417 21.8094 16.8365 21.2341 16.4521C20.6588 16.0677 20.2104 15.5213 19.9456 14.882C19.6808 14.2428 19.6115 13.5393 19.7465 12.8607C19.8815 12.182 20.2147 11.5587 20.704 11.0694C21.1932 10.5801 21.8166 10.2469 22.4952 10.1119C23.1739 9.97694 23.8773 10.0462 24.5166 10.311C25.1559 10.5758 25.7022 11.0242 26.0867 11.5996C26.4711 12.1749 26.6763 12.8513 26.6763 13.5432C26.6751 14.4707 26.3062 15.3599 25.6503 16.0158C24.9945 16.6716 24.1053 17.0406 23.1778 17.0417ZM23.1778 11.794C22.8318 11.794 22.4936 11.8966 22.2059 12.0888C21.9183 12.281 21.6941 12.5542 21.5617 12.8738C21.4293 13.1934 21.3946 13.5452 21.4621 13.8845C21.5296 14.2238 21.6962 14.5355 21.9409 14.7801C22.1855 15.0248 22.4972 15.1914 22.8365 15.2589C23.1758 15.3263 23.5275 15.2917 23.8472 15.1593C24.1668 15.0269 24.44 14.8027 24.6322 14.515C24.8244 14.2274 24.927 13.8892 24.927 13.5432C24.927 13.0793 24.7427 12.6344 24.4147 12.3063C24.0866 11.9783 23.6417 11.794 23.1778 11.794ZM18.8046 7.42083C18.1127 7.42083 17.4363 7.21565 16.861 6.83123C16.2857 6.44681 15.8372 5.90042 15.5724 5.26115C15.3077 4.62188 15.2384 3.91845 15.3734 3.23981C15.5084 2.56117 15.8416 1.93779 16.3308 1.44852C16.8201 0.959243 17.4435 0.626043 18.1221 0.491052C18.8008 0.356062 19.5042 0.425344 20.1435 0.690137C20.7827 0.954931 21.3291 1.40334 21.7135 1.97867C22.098 2.55399 22.3031 3.23039 22.3031 3.92233C22.302 4.84984 21.933 5.73902 21.2772 6.39487C20.6213 7.05071 19.7321 7.41968 18.8046 7.42083ZM18.8046 2.17308C18.4587 2.17308 18.1205 2.27567 17.8328 2.46788C17.5451 2.66009 17.3209 2.93329 17.1885 3.25292C17.0561 3.57256 17.0215 3.92427 17.089 4.26359C17.1565 4.60292 17.3231 4.9146 17.5677 5.15924C17.8124 5.40388 18.1241 5.57048 18.4634 5.63797C18.8027 5.70547 19.1544 5.67083 19.4741 5.53843C19.7937 5.40603 20.0669 5.18183 20.2591 4.89416C20.4513 4.6065 20.5539 4.2683 20.5539 3.92233C20.5539 3.4584 20.3696 3.01347 20.0415 2.68542C19.7135 2.35738 19.2686 2.17308 18.8046 2.17308ZM8.30913 7.42083C7.61719 7.42083 6.94079 7.21565 6.36547 6.83123C5.79014 6.44681 5.34173 5.90042 5.07694 5.26115C4.81214 4.62188 4.74286 3.91845 4.87785 3.23981C5.01284 2.56117 5.34604 1.93779 5.83532 1.44852C6.32459 0.959243 6.94797 0.626043 7.62661 0.491052C8.30525 0.356062 9.00868 0.425344 9.64795 0.690137C10.2872 0.954931 10.8336 1.40334 11.218 1.97867C11.6025 2.55399 11.8076 3.23039 11.8076 3.92233C11.8065 4.84984 11.4375 5.73902 10.7817 6.39487C10.1258 7.05071 9.23664 7.41968 8.30913 7.42083ZM8.30913 2.17308C7.96316 2.17308 7.62496 2.27567 7.3373 2.46788C7.04964 2.66009 6.82543 2.93329 6.69303 3.25292C6.56064 3.57256 6.526 3.92427 6.59349 4.26359C6.66099 4.60292 6.82759 4.9146 7.07223 5.15924C7.31686 5.40388 7.62855 5.57048 7.96787 5.63797C8.30719 5.70547 8.65891 5.67083 8.97854 5.53843C9.29818 5.40603 9.57137 5.18183 9.76358 4.89416C9.95579 4.6065 10.0584 4.2683 10.0584 3.92233C10.0584 3.4584 9.87409 3.01347 9.54604 2.68542C9.21799 2.35738 8.77306 2.17308 8.30913 2.17308Z"/>
</mask>
<path d="M13.5569 17.0417C12.8649 17.0417 12.1885 16.8365 11.6132 16.4521C11.0379 16.0677 10.5895 15.5213 10.3247 14.882C10.0599 14.2428 9.99062 13.5393 10.1256 12.8607C10.2606 12.182 10.5938 11.5587 11.0831 11.0694C11.5723 10.5801 12.1957 10.2469 12.8744 10.1119C13.553 9.97694 14.2564 10.0462 14.8957 10.311C15.535 10.5758 16.0814 11.0242 16.4658 11.5996C16.8502 12.1749 17.0554 12.8513 17.0554 13.5432C17.0542 14.4707 16.6853 15.3599 16.0294 16.0158C15.3736 16.6716 14.4844 17.0406 13.5569 17.0417ZM3.936 17.0417C3.24407 17.0417 2.56767 16.8365 1.99234 16.4521C1.41701 16.0677 0.968603 15.5213 0.703809 14.882C0.439016 14.2428 0.369734 13.5393 0.504724 12.8607C0.639715 12.182 0.972915 11.5587 1.46219 11.0694C1.95146 10.5801 2.57484 10.2469 3.25348 10.1119C3.93212 9.97694 4.63556 10.0462 5.27482 10.311C5.91409 10.5758 6.46048 11.0242 6.8449 11.5996C7.22932 12.1749 7.43451 12.8513 7.43451 13.5432C7.43335 14.4707 7.06439 15.3599 6.40854 16.0158C5.7527 16.6716 4.86351 17.0406 3.936 17.0417ZM3.936 11.794C3.59003 11.794 3.25184 11.8966 2.96417 12.0888C2.67651 12.281 2.4523 12.5542 2.31991 12.8738C2.18751 13.1934 2.15287 13.5452 2.22036 13.8845C2.28786 14.2238 2.45446 14.5355 2.6991 14.7801C2.94373 15.0248 3.25542 15.1914 3.59474 15.2589C3.93406 15.3263 4.28578 15.2917 4.60541 15.1593C4.92505 15.0269 5.19824 14.8027 5.39045 14.515C5.58266 14.2274 5.68526 13.8892 5.68526 13.5432C5.68526 13.0793 5.50096 12.6344 5.17291 12.3063C4.84486 11.9783 4.39993 11.794 3.936 11.794ZM8.30913 26.6626C7.61719 26.6626 6.94079 26.4574 6.36547 26.073C5.79014 25.6886 5.34173 25.1422 5.07694 24.5029C4.81214 23.8636 4.74286 23.1602 4.87785 22.4816C5.01284 21.8029 5.34604 21.1796 5.83532 20.6903C6.32459 20.201 6.94797 19.8678 7.62661 19.7328C8.30525 19.5978 9.00868 19.6671 9.64795 19.9319C10.2872 20.1967 10.8336 20.6451 11.218 21.2204C11.6025 21.7958 11.8076 22.4722 11.8076 23.1641C11.8065 24.0916 11.4375 24.9808 10.7817 25.6366C10.1258 26.2925 9.23664 26.6614 8.30913 26.6626ZM8.30913 21.4148C7.96316 21.4148 7.62496 21.5174 7.3373 21.7096C7.04964 21.9019 6.82543 22.1751 6.69303 22.4947C6.56064 22.8143 6.526 23.166 6.59349 23.5054C6.66099 23.8447 6.82759 24.1564 7.07223 24.401C7.31686 24.6456 7.62855 24.8122 7.96787 24.8797C8.30719 24.9472 8.65891 24.9126 8.97854 24.7802C9.29818 24.6478 9.57137 24.4236 9.76358 24.1359C9.95579 23.8483 10.0584 23.5101 10.0584 23.1641C10.0584 22.7002 9.87409 22.2552 9.54604 21.9272C9.21799 21.5991 8.77306 21.4148 8.30913 21.4148ZM18.8046 26.6626C18.1127 26.6626 17.4363 26.4574 16.861 26.073C16.2857 25.6886 15.8372 25.1422 15.5724 24.5029C15.3077 23.8636 15.2384 23.1602 15.3734 22.4816C15.5084 21.8029 15.8416 21.1796 16.3308 20.6903C16.8201 20.201 17.4435 19.8678 18.1221 19.7328C18.8008 19.5978 19.5042 19.6671 20.1435 19.9319C20.7827 20.1967 21.3291 20.6451 21.7135 21.2204C22.098 21.7958 22.3031 22.4722 22.3031 23.1641C22.302 24.0916 21.933 24.9808 21.2772 25.6366C20.6213 26.2925 19.7321 26.6614 18.8046 26.6626ZM18.8046 21.4148C18.4587 21.4148 18.1205 21.5174 17.8328 21.7096C17.5451 21.9019 17.3209 22.1751 17.1885 22.4947C17.0561 22.8143 17.0215 23.166 17.089 23.5054C17.1565 23.8447 17.3231 24.1564 17.5677 24.401C17.8124 24.6456 18.1241 24.8122 18.4634 24.8797C18.8027 24.9472 19.1544 24.9126 19.4741 24.7802C19.7937 24.6478 20.0669 24.4236 20.2591 24.1359C20.4513 23.8483 20.5539 23.5101 20.5539 23.1641C20.5539 22.7002 20.3696 22.2552 20.0415 21.9272C19.7135 21.5991 19.2686 21.4148 18.8046 21.4148ZM23.1778 17.0417C22.4858 17.0417 21.8094 16.8365 21.2341 16.4521C20.6588 16.0677 20.2104 15.5213 19.9456 14.882C19.6808 14.2428 19.6115 13.5393 19.7465 12.8607C19.8815 12.182 20.2147 11.5587 20.704 11.0694C21.1932 10.5801 21.8166 10.2469 22.4952 10.1119C23.1739 9.97694 23.8773 10.0462 24.5166 10.311C25.1559 10.5758 25.7022 11.0242 26.0867 11.5996C26.4711 12.1749 26.6763 12.8513 26.6763 13.5432C26.6751 14.4707 26.3062 15.3599 25.6503 16.0158C24.9945 16.6716 24.1053 17.0406 23.1778 17.0417ZM23.1778 11.794C22.8318 11.794 22.4936 11.8966 22.2059 12.0888C21.9183 12.281 21.6941 12.5542 21.5617 12.8738C21.4293 13.1934 21.3946 13.5452 21.4621 13.8845C21.5296 14.2238 21.6962 14.5355 21.9409 14.7801C22.1855 15.0248 22.4972 15.1914 22.8365 15.2589C23.1758 15.3263 23.5275 15.2917 23.8472 15.1593C24.1668 15.0269 24.44 14.8027 24.6322 14.515C24.8244 14.2274 24.927 13.8892 24.927 13.5432C24.927 13.0793 24.7427 12.6344 24.4147 12.3063C24.0866 11.9783 23.6417 11.794 23.1778 11.794ZM18.8046 7.42083C18.1127 7.42083 17.4363 7.21565 16.861 6.83123C16.2857 6.44681 15.8372 5.90042 15.5724 5.26115C15.3077 4.62188 15.2384 3.91845 15.3734 3.23981C15.5084 2.56117 15.8416 1.93779 16.3308 1.44852C16.8201 0.959243 17.4435 0.626043 18.1221 0.491052C18.8008 0.356062 19.5042 0.425344 20.1435 0.690137C20.7827 0.954931 21.3291 1.40334 21.7135 1.97867C22.098 2.55399 22.3031 3.23039 22.3031 3.92233C22.302 4.84984 21.933 5.73902 21.2772 6.39487C20.6213 7.05071 19.7321 7.41968 18.8046 7.42083ZM18.8046 2.17308C18.4587 2.17308 18.1205 2.27567 17.8328 2.46788C17.5451 2.66009 17.3209 2.93329 17.1885 3.25292C17.0561 3.57256 17.0215 3.92427 17.089 4.26359C17.1565 4.60292 17.3231 4.9146 17.5677 5.15924C17.8124 5.40388 18.1241 5.57048 18.4634 5.63797C18.8027 5.70547 19.1544 5.67083 19.4741 5.53843C19.7937 5.40603 20.0669 5.18183 20.2591 4.89416C20.4513 4.6065 20.5539 4.2683 20.5539 3.92233C20.5539 3.4584 20.3696 3.01347 20.0415 2.68542C19.7135 2.35738 19.2686 2.17308 18.8046 2.17308ZM8.30913 7.42083C7.61719 7.42083 6.94079 7.21565 6.36547 6.83123C5.79014 6.44681 5.34173 5.90042 5.07694 5.26115C4.81214 4.62188 4.74286 3.91845 4.87785 3.23981C5.01284 2.56117 5.34604 1.93779 5.83532 1.44852C6.32459 0.959243 6.94797 0.626043 7.62661 0.491052C8.30525 0.356062 9.00868 0.425344 9.64795 0.690137C10.2872 0.954931 10.8336 1.40334 11.218 1.97867C11.6025 2.55399 11.8076 3.23039 11.8076 3.92233C11.8065 4.84984 11.4375 5.73902 10.7817 6.39487C10.1258 7.05071 9.23664 7.41968 8.30913 7.42083ZM8.30913 2.17308C7.96316 2.17308 7.62496 2.27567 7.3373 2.46788C7.04964 2.66009 6.82543 2.93329 6.69303 3.25292C6.56064 3.57256 6.526 3.92427 6.59349 4.26359C6.66099 4.60292 6.82759 4.9146 7.07223 5.15924C7.31686 5.40388 7.62855 5.57048 7.96787 5.63797C8.30719 5.70547 8.65891 5.67083 8.97854 5.53843C9.29818 5.40603 9.57137 5.18183 9.76358 4.89416C9.95579 4.6065 10.0584 4.2683 10.0584 3.92233C10.0584 3.4584 9.87409 3.01347 9.54604 2.68542C9.21799 2.35738 8.77306 2.17308 8.30913 2.17308Z" fill="#C1C1C1" stroke="#C1C1C1" stroke-width="0.859852" mask="url(#path-1-inside-1_602_205)"/>
<line x1="9.11891" y1="20.7442" x2="17.5474" y2="5.99536" stroke="#C1C1C1" stroke-width="0.859852"/>
<line x1="8.98951" y1="5.97254" x2="17.4832" y2="20.684" stroke="#C1C1C1" stroke-width="0.859852"/>
<line x1="6.49609" y1="13.6273" x2="20.719" y2="13.6273" stroke="#C1C1C1" stroke-width="0.859852"/>
</svg>
