<svg width="38" height="37" viewBox="0 0 38 37" fill="none" xmlns="http://www.w3.org/2000/svg">
<path d="M35.2379 15.626C36.087 13.1746 35.7946 10.4893 34.4368 8.25952C32.3949 4.83952 28.29 3.08002 24.281 3.90802C22.4975 1.97527 19.9351 0.876141 17.2488 0.891891C13.1509 0.882891 9.51497 3.42089 8.25425 7.17164C5.62173 7.69027 3.34941 9.27539 2.01969 11.522C-0.0374419 14.933 0.431524 19.2328 3.17983 22.1578C2.33078 24.6091 2.62315 27.2945 3.98093 29.5243C6.02286 32.9443 10.1278 34.7038 14.1368 33.8758C15.9191 35.8085 18.4826 36.9076 21.1689 36.8908C25.2692 36.9009 28.9063 34.3606 30.167 30.6065C32.7995 30.0879 35.0719 28.5028 36.4016 26.2561C38.4564 22.8451 37.9862 18.5488 35.2391 15.6238L35.2379 15.626ZM21.1713 34.5384C19.5305 34.5406 17.9412 33.9883 16.6816 32.9769C16.7389 32.9476 16.8383 32.8948 16.9026 32.8565L24.3546 28.7165C24.7359 28.5084 24.9698 28.118 24.9675 27.6961V17.5903L28.1169 19.3396C28.1508 19.3554 28.173 19.3869 28.1777 19.4229V27.7918C28.173 31.5133 25.04 34.5305 21.1713 34.5384ZM6.10356 28.3475C5.28141 26.9818 4.98552 25.3809 5.26737 23.8273C5.32234 23.8588 5.41941 23.9161 5.48841 23.9544L12.9404 28.0944C13.3182 28.307 13.7859 28.307 14.1649 28.0944L23.2623 23.0409V26.5396C23.2647 26.5756 23.2471 26.6105 23.2179 26.633L15.6852 30.8169C12.3299 32.6754 8.04491 31.5706 6.10473 28.3475H6.10356ZM4.14232 12.6999C4.96096 11.3319 6.25325 10.2856 7.7923 9.74227C7.7923 9.80414 7.7888 9.91327 7.7888 9.98977V18.2709C7.78646 18.6916 8.02035 19.082 8.40044 19.2901L17.4979 24.3425L14.3485 26.0919C14.3169 26.1121 14.2771 26.1155 14.242 26.1009L6.70819 21.9136C3.35993 20.0484 2.21149 15.9275 4.14115 12.701L4.14232 12.6999ZM30.0185 18.4925L20.921 13.439L24.0705 11.6908C24.102 11.6705 24.1418 11.6671 24.1769 11.6818L31.7107 15.8656C35.0648 17.7298 36.2145 21.8574 34.2766 25.0839C33.4568 26.4496 32.1657 27.4959 30.6278 28.0404V19.5118C30.6313 19.091 30.3986 18.7018 30.0197 18.4925H30.0185ZM33.1527 13.9543C33.0978 13.9216 33.0007 13.8654 32.9317 13.8271L25.4797 9.68714C25.1019 9.47452 24.6342 9.47452 24.2552 9.68714L15.1578 14.7406V11.2419C15.1554 11.2059 15.173 11.171 15.2022 11.1485L22.7349 6.96802C26.0902 5.10614 30.3799 6.21427 32.3142 9.44302C33.1317 10.8065 33.4276 12.4029 33.1504 13.9543H33.1527ZM13.4456 20.1901L10.295 18.4408C10.2611 18.425 10.2389 18.3935 10.2342 18.3575V9.98864C10.2365 6.26264 13.379 3.24314 17.2523 3.24539C18.8908 3.24539 20.4766 3.79889 21.7362 4.80689C21.6788 4.83614 21.5806 4.88902 21.5151 4.92727L14.0631 9.06727C13.6819 9.27539 13.448 9.66464 13.4503 10.0865L13.4456 20.1879V20.1901ZM15.1566 16.6419L19.2089 14.3908L23.2612 16.6408V21.1419L19.2089 23.3919L15.1566 21.1419V16.6419Z" fill="#E6E6E6"/>
</svg>
