<svg width="24" height="24" viewBox="0 0 24 24" fill="none" xmlns="http://www.w3.org/2000/svg">
<path d="M14.5469 23.8359C14.7456 23.8363 14.9425 23.7974 15.126 23.7213C15.3096 23.6453 15.4764 23.5337 15.6166 23.393L23.0374 15.9711C23.1778 15.8307 23.2893 15.6639 23.3653 15.4804C23.4413 15.2968 23.4805 15.1001 23.4805 14.9014C23.4805 14.7028 23.4413 14.5061 23.3653 14.3225C23.2893 14.139 23.1778 13.9722 23.0374 13.8318L19.9331 10.7275L17.5636 4.41106C17.4706 4.16248 17.3138 3.94277 17.109 3.77397C16.9041 3.60518 16.6585 3.49325 16.3967 3.44943L1.33049 0.938388C1.2375 0.922669 1.14219 0.92743 1.05123 0.952339C0.96026 0.977247 0.875826 1.0217 0.803812 1.08261C0.731799 1.14351 0.67394 1.21939 0.634275 1.30496C0.59461 1.39053 0.574092 1.48372 0.574154 1.57803C0.57429 1.61422 0.57718 1.65034 0.582798 1.68608L3.09384 16.7523C3.13748 17.0143 3.24933 17.2601 3.41814 17.4652C3.58694 17.6702 3.80675 17.8272 4.05546 17.9203L10.372 20.2887L13.4773 23.394C13.6175 23.5347 13.7843 23.6462 13.9679 23.722C14.1515 23.7978 14.3483 23.8366 14.5469 23.8359ZM4.51035 16.7048C4.4749 16.6915 4.44358 16.6691 4.41949 16.6399C4.39541 16.6107 4.37942 16.5757 4.37313 16.5384L2.19488 3.46779L7.90846 9.1803C7.54698 9.76637 7.41333 10.4648 7.53291 11.1429C7.65248 11.821 8.01695 12.4316 8.55709 12.8587C9.09723 13.2858 9.77541 13.4996 10.4628 13.4596C11.1502 13.4195 11.799 13.1284 12.2859 12.6415C12.7728 12.1546 13.0639 11.5058 13.104 10.8184C13.144 10.131 12.9302 9.45282 12.5031 8.91268C12.076 8.37254 11.4654 8.00807 10.7873 7.8885C10.1092 7.76892 9.41078 7.90257 8.82471 8.26405L3.11004 2.55047L16.1839 4.7298C16.2209 4.73617 16.2556 4.75208 16.2846 4.77595C16.3136 4.79982 16.3358 4.83084 16.3492 4.86594L18.6182 10.9231L10.5675 18.9738L4.51035 16.7048ZM10.2985 9.1414C10.5977 9.1414 10.8901 9.23012 11.1389 9.39633C11.3876 9.56255 11.5815 9.7988 11.696 10.0752C11.8105 10.3516 11.8405 10.6558 11.7821 10.9492C11.7237 11.2426 11.5797 11.5121 11.3681 11.7237C11.1566 11.9352 10.887 12.0793 10.5936 12.1377C10.3002 12.1961 9.99602 12.1661 9.71961 12.0516C9.44321 11.9371 9.20696 11.7432 9.04074 11.4945C8.87453 11.2457 8.78581 10.9533 8.78581 10.6541C8.78581 10.2529 8.94518 9.86814 9.22886 9.58445C9.51255 9.30077 9.8973 9.1414 10.2985 9.1414ZM14.3935 22.4756L11.648 19.7301L19.3745 12.0025L22.1211 14.7491C22.1412 14.7692 22.1571 14.793 22.168 14.8192C22.1789 14.8455 22.1845 14.8736 22.1845 14.902C22.1845 14.9304 22.1789 14.9585 22.168 14.9847C22.1571 15.011 22.1412 15.0348 22.1211 15.0549L14.6993 22.4756C14.6792 22.4957 14.6554 22.5117 14.6292 22.5225C14.6029 22.5334 14.5748 22.539 14.5464 22.539C14.518 22.539 14.4899 22.5334 14.4636 22.5225C14.4374 22.5117 14.4136 22.4957 14.3935 22.4756Z" fill="#C1C1C1"/>
</svg>
