<svg width="22" height="27" viewBox="0 0 22 27" fill="none" xmlns="http://www.w3.org/2000/svg">
<path d="M20.466 18.6233H5.87898C4.74848 18.6233 4.18323 18.6233 3.71888 18.7473C3.10053 18.9131 2.53672 19.2388 2.08414 19.6916C1.63155 20.1444 1.30614 20.7083 1.14062 21.3268" stroke="#C1C1C1" stroke-width="1.5"/>
<path d="M6.00297 7.68291H15.7276M6.00297 11.9375H12.0809M19.9822 22.2699H6.00297M8.43414 25.9167C4.99646 25.9167 3.27641 25.9167 2.20912 24.8482C1.14063 23.7809 1.14062 22.0609 1.14062 18.6232V8.89849C1.14062 5.46082 1.14063 3.74076 2.20912 2.67348C3.27641 1.60498 4.99646 1.60498 8.43414 1.60498H13.2965C16.7342 1.60498 18.4542 1.60498 19.5215 2.67348C20.59 3.74076 20.59 5.46082 20.59 8.89849M13.2965 25.9167C16.7342 25.9167 18.4542 25.9167 19.5215 24.8482C20.59 23.7809 20.59 22.0609 20.59 18.6232V13.7608" stroke="#C1C1C1" stroke-width="1.5" stroke-linecap="round"/>
</svg>
