<svg width="28" height="27" viewBox="0 0 28 27" fill="none" xmlns="http://www.w3.org/2000/svg">
<path d="M12.7166 1.69033C13.2783 0.337923 15.1957 0.337923 15.7574 1.69033L18.7258 8.82467L26.4285 9.44239C27.8896 9.55935 28.481 11.3829 27.3674 12.3366L21.4998 17.3641L23.2921 24.8806C23.633 26.3055 22.0813 27.4322 20.831 26.6679L14.237 22.6403L7.64133 26.6663C6.39105 27.4306 4.84097 26.3039 5.18031 24.879L6.97419 17.3625L1.10496 12.335C-0.00695238 11.3812 0.584419 9.5577 2.0439 9.44075L9.74819 8.82302L12.7166 1.69033ZM14.237 2.32289L11.2686 9.45887C11.1521 9.73828 10.9609 9.98019 10.7159 10.158C10.471 10.3359 10.1817 10.4428 9.87997 10.467L2.17733 11.0847L8.04491 16.1122C8.27541 16.3092 8.44705 16.566 8.54093 16.8544C8.63481 17.1427 8.64728 17.4513 8.57698 17.7463L6.7831 25.2628L13.3788 21.2336C13.6372 21.0758 13.9342 20.9923 14.237 20.9923C14.5398 20.9923 14.8368 21.0758 15.0952 21.2336L21.6909 25.2628L19.897 17.7463C19.8265 17.4515 19.8388 17.1429 19.9323 16.8546C20.0259 16.5663 20.1973 16.3094 20.4275 16.1122L26.2967 11.0847L18.594 10.467C18.2923 10.4428 18.003 10.3359 17.7581 10.158C17.5131 9.98019 17.3219 9.73828 17.2054 9.45887L14.237 2.32289Z" fill="#C1C1C1"/>
</svg>
