<svg width="27" height="27" viewBox="0 0 27 27" fill="none" xmlns="http://www.w3.org/2000/svg">
<path d="M13.8258 9.04317L13.1781 9.67755C13.2625 9.76378 13.3633 9.83229 13.4745 9.87906C13.5857 9.92583 13.7051 9.94992 13.8258 9.94992C13.9464 9.94992 14.0659 9.92583 14.1771 9.87906C14.2883 9.83229 14.3891 9.76378 14.4735 9.67755L13.8258 9.04317ZM13.1431 15.8075C12.3649 15.2348 11.3692 14.4216 10.5777 13.5165C9.75603 12.58 9.29444 11.7016 9.29444 10.9874H7.4819C7.4819 12.3891 8.32654 13.6965 9.21348 14.7104C10.1294 15.7556 11.2423 16.6594 12.0676 17.2672L13.1431 15.8075ZM9.29444 10.9874C9.29444 9.64976 9.89258 8.94529 10.5064 8.7157C11.1324 8.48128 12.128 8.60695 13.1781 9.67876L14.4735 8.40999C13.0766 6.98292 11.3547 6.46211 9.87203 7.01554C8.37971 7.5738 7.4819 9.09029 7.4819 10.9874H9.29444ZM15.5839 17.2685C16.4092 16.6594 17.5221 15.758 18.4381 14.7116C19.325 13.6978 20.1697 12.3915 20.1697 10.9886H18.3571C18.3571 11.7028 17.8943 12.5812 17.0738 13.5177C16.2824 14.4228 15.2855 15.2348 14.5085 15.8075L15.5839 17.2685ZM20.1697 10.9886C20.1697 9.0915 19.2718 7.57501 17.7795 7.01675C16.2969 6.46332 14.575 6.98412 13.1781 8.40999L14.4735 9.67876C15.5235 8.60574 16.5204 8.48249 17.1439 8.71449C17.7602 8.94408 18.3571 9.64976 18.3571 10.9886H20.1697ZM12.0676 17.2685C12.5413 17.6177 13.0706 18.0515 13.8258 18.0515V16.2377C13.8077 16.2377 13.7871 16.2426 13.7037 16.1966C13.5097 16.0784 13.3225 15.9493 13.1431 15.81L12.0676 17.2685ZM14.5085 15.8075C14.2149 16.0251 14.0662 16.1326 13.9478 16.1966C13.8632 16.2426 13.8439 16.2377 13.8258 16.2377V18.0515C14.581 18.0515 15.1103 17.6165 15.5839 17.2685L14.5085 15.8075ZM0.835938 11.936C0.835938 12.1763 0.931419 12.4068 1.10138 12.5768C1.27134 12.7468 1.50185 12.8422 1.74221 12.8422C1.98256 12.8422 2.21308 12.7468 2.38303 12.5768C2.55299 12.4068 2.64847 12.1763 2.64847 11.936H0.835938ZM3.03998 18.13C2.948 17.9079 2.77157 17.7315 2.54949 17.6395C2.32741 17.5475 2.07788 17.5474 1.85579 17.6394C1.6337 17.7314 1.45724 17.9078 1.36524 18.1299C1.27324 18.352 1.27322 18.6015 1.3652 18.8236L3.03998 18.13ZM15.9187 25.5542L16.5736 24.4473L15.0148 23.5241L14.3587 24.631L15.9187 25.5542ZM11.078 24.4473L11.7329 25.5542L13.2917 24.631L12.638 23.5241L11.078 24.4473ZM14.3587 24.631C14.3022 24.7214 14.2236 24.7959 14.1304 24.8476C14.0372 24.8993 13.9324 24.9264 13.8258 24.9264C13.7192 24.9264 13.6144 24.8993 13.5211 24.8476C13.4279 24.7959 13.3494 24.7214 13.2929 24.631L11.7329 25.5542C12.667 27.1335 14.9834 27.1335 15.9187 25.5542L14.3587 24.631ZM12.0132 2.5712H15.6383V0.758667H12.0132V2.5712ZM25.0031 11.936V13.1443H26.8156V11.936H25.0031ZM8.7543 21.2911C7.23661 21.2645 6.44151 21.1678 5.818 20.9092L5.12561 22.584C6.09833 22.9876 7.20519 23.0782 8.72289 23.1048L8.7543 21.2911ZM1.3652 18.8236C1.71437 19.6666 2.22618 20.4326 2.87139 21.0778C3.5166 21.723 4.28259 22.2348 5.12561 22.584L5.818 20.9092C4.55971 20.388 3.5612 19.3883 3.03998 18.13L1.3652 18.8236ZM25.0031 13.1443C25.0031 14.5641 25.0031 15.584 24.9475 16.3888C24.8931 17.1851 24.7892 17.7047 24.6128 18.13L26.2864 18.8236C26.5703 18.1397 26.6948 17.4002 26.7564 16.512C26.8168 15.6311 26.8156 14.54 26.8156 13.1443H25.0031ZM18.9287 23.1024C20.4464 23.077 21.5532 22.9876 22.526 22.584L21.8324 20.9092C21.2101 21.1678 20.415 21.2645 18.8985 21.2911L18.9287 23.1024ZM24.6128 18.13C24.0916 19.3883 23.0919 20.388 21.8336 20.9092L22.526 22.584C23.369 22.2348 24.135 21.723 24.7802 21.0778C25.4254 20.4326 25.9372 19.6666 26.2864 18.8236L24.6128 18.13ZM15.6383 2.5712C17.6333 2.5712 19.0664 2.5712 20.1842 2.67875C21.2886 2.78387 21.9907 2.98446 22.5513 3.32764L23.4975 1.78215C22.6045 1.23597 21.5919 0.99188 20.3557 0.873461C19.1329 0.757459 17.5983 0.758667 15.6383 0.758667V2.5712ZM26.8156 11.936C26.8156 9.97602 26.8156 8.44261 26.6996 7.21855C26.5824 5.9824 26.3383 4.96858 25.7921 4.07682L24.2454 5.02296C24.5898 5.58364 24.7904 6.28569 24.8955 7.39134C25.0019 8.50786 25.0031 9.94097 25.0031 11.936H26.8156ZM22.5501 3.32764C23.2415 3.75092 23.8229 4.33187 24.2467 5.02296L25.7921 4.07682C25.2191 3.14152 24.4328 2.35518 23.4975 1.78215L22.5501 3.32764ZM12.0132 0.758667C10.0533 0.758667 8.51988 0.758668 7.29582 0.873461C6.05967 0.99188 5.04585 1.23597 4.15409 1.78215L5.10023 3.32884C5.66091 2.98446 6.36296 2.78387 7.46861 2.67875C8.58513 2.57241 10.0182 2.5712 12.0132 2.5712V0.758667ZM2.64847 11.936C2.64847 9.94097 2.64847 8.50786 2.75602 7.39013C2.86114 6.28569 3.06173 5.58364 3.40491 5.02296L1.85942 4.07803C1.31324 4.96979 1.06915 5.9824 0.950731 7.21855C0.835938 8.44382 0.835938 9.97602 0.835938 11.936H2.64847ZM4.15409 1.78215C3.21879 2.35518 2.43245 3.14273 1.85942 4.07803L3.40611 5.02296C3.8292 4.33215 4.40972 3.75122 5.10023 3.32764L4.15409 1.78215ZM12.6368 23.5241C12.3927 23.1097 12.1776 22.7435 11.9673 22.4559C11.7519 22.1399 11.4708 21.874 11.1432 21.6765L10.2321 23.2438C10.2889 23.2776 10.3675 23.338 10.5028 23.5241C10.649 23.7247 10.8146 24.0026 11.078 24.4473L12.6368 23.5241ZM8.72289 23.1024C9.25456 23.1121 9.58928 23.1193 9.84545 23.1471C10.0847 23.1737 10.1777 23.2124 10.2321 23.2438L11.1432 21.6765C10.8056 21.4876 10.4307 21.3746 10.0448 21.3455C9.68474 21.3056 9.25215 21.2995 8.7543 21.2911L8.72289 23.1024ZM16.5736 24.4473C16.837 24.0038 17.0026 23.7247 17.1488 23.5241C17.2841 23.338 17.3626 23.2776 17.4194 23.2438L16.5083 21.6765C16.1579 21.882 15.9042 22.1538 15.6842 22.4559C15.4752 22.7435 15.2589 23.1084 15.0136 23.5241L16.5736 24.4473ZM18.8985 21.2911C18.4006 21.2995 17.9668 21.3056 17.6067 21.3455C17.2309 21.3877 16.8624 21.4711 16.5083 21.6765L17.4194 23.2438C17.4738 23.2124 17.5669 23.1737 17.8061 23.1471C18.0623 23.1193 18.3982 23.1109 18.9299 23.1024L18.8985 21.2911Z" fill="#C1C1C1"/>
</svg>
