<svg width="34" height="34" viewBox="0 0 34 34" fill="none" xmlns="http://www.w3.org/2000/svg">
<path fill-rule="evenodd" clip-rule="evenodd" d="M30.5273 0.879883H3.97266C2.19283 0.879883 0.75 2.32272 0.75 4.10254V30.6572C0.75 32.437 2.19283 33.8799 3.97266 33.8799H30.5273C32.3072 33.8799 33.75 32.437 33.75 30.6572V4.10254C33.75 2.32272 32.3072 0.879883 30.5273 0.879883ZM27.9131 5.16988H20.9419C20.0876 5.16988 19.395 5.86244 19.395 6.71676V18.0605C19.395 18.9148 20.0876 19.6074 20.9419 19.6074H27.9131C28.7674 19.6074 29.46 18.9148 29.46 18.0605V6.71676C29.46 5.86244 28.7674 5.16988 27.9131 5.16988ZM6.58687 5.16988H13.5581C14.4124 5.16988 15.105 5.86244 15.105 6.71676V26.3105C15.105 27.1648 14.4124 27.8574 13.5581 27.8574H6.58687C5.73256 27.8574 5.04 27.1648 5.04 26.3105V6.71676C5.04 5.86244 5.73256 5.16988 6.58687 5.16988Z" fill="#D9D9D9"/>
</svg>
