<svg width="33" height="33" viewBox="0 0 33 33" fill="none" xmlns="http://www.w3.org/2000/svg">
<path d="M31.0201 4.32788L24.4371 1.16088C23.6711 0.790884 22.7601 0.946884 22.1611 1.54588L9.55213 13.0509L4.05713 8.88388C3.54713 8.49288 2.82813 8.52488 2.35413 8.95688L0.594127 10.5609C0.011127 11.0869 0.011127 12.0039 0.589127 12.5299L5.35513 16.8789L0.589127 21.2279C0.011127 21.7539 0.011127 22.6709 0.594127 23.1969L2.35413 24.8009C2.83313 25.2329 3.54713 25.2649 4.05713 24.8739L9.55213 20.7019L22.1671 32.2119C22.7611 32.8109 23.6721 32.9669 24.4381 32.5969L31.0271 29.4249C31.7201 29.0919 32.1571 28.3939 32.1571 27.6229V6.12788C32.1571 5.36188 31.7141 4.65888 31.0221 4.32588L31.0201 4.32788ZM24.1601 24.1459L14.5871 16.8799L24.1601 9.61388V24.1459Z" fill="#D9D9D9"/>
</svg>
