<svg width="172" height="30" viewBox="0 0 172 30" fill="none" xmlns="http://www.w3.org/2000/svg">
<g clip-path="url(#clip0_499_992)">
<path fill-rule="evenodd" clip-rule="evenodd" d="M46.3874 0.342529L31.8063 29.1866H18.1106L24.2128 17.2324H23.939C18.9048 23.8453 11.3936 28.1987 0.691406 29.1866V17.3979C0.691406 17.3979 7.53788 16.9887 11.5627 12.7066H0.691406V0.342757H12.9096V10.5119L13.1838 10.5107L18.1766 0.342757H27.417V10.4474L27.6912 10.4469L32.8712 0.342529H46.3874Z" fill="#E6E6E6"/>
<path d="M125.898 26.0028H129.833V3.14673H125.898V26.0028Z" fill="#E6E6E6"/>
<path fill-rule="evenodd" clip-rule="evenodd" d="M104.204 25.7694C105.059 26.1292 105.928 26.309 106.813 26.309C108.273 26.309 109.58 25.9493 110.733 25.2298C111.886 24.5102 112.78 23.5183 113.414 22.2543C114.048 20.9804 114.365 19.5365 114.365 17.9222C114.365 16.308 114.039 14.8641 113.385 13.5902C112.732 12.3164 111.824 11.3294 110.661 10.6293C109.498 9.91948 108.177 9.56942 106.697 9.57914C105.756 9.57914 104.852 9.76389 103.987 10.1334C103.122 10.5029 102.402 11.028 101.825 11.7087C101.781 11.7605 101.738 11.8128 101.696 11.8657V3.16138H97.7461V26.0028H101.667L101.659 23.869C101.76 23.9948 101.869 24.1177 101.984 24.2378C102.609 24.8895 103.348 25.3999 104.204 25.7694ZM108.239 22.0792C107.596 22.4778 106.861 22.6773 106.034 22.6773C105.217 22.6773 104.468 22.473 103.786 22.0646C103.103 21.6464 102.56 21.0776 102.157 20.3581C101.763 19.6385 101.566 18.8217 101.566 17.9077C101.556 16.9936 101.748 16.1768 102.142 15.4572C102.546 14.7279 103.089 14.164 103.771 13.7653C104.453 13.3569 105.208 13.1575 106.034 13.1673C106.861 13.1575 107.596 13.352 108.239 13.7507C108.893 14.1396 109.393 14.6988 109.739 15.4281C110.094 16.1476 110.272 16.9742 110.272 17.9077C110.272 18.8411 110.094 19.6677 109.739 20.3872C109.393 21.1068 108.893 21.6708 108.239 22.0792Z" fill="#E6E6E6"/>
<path d="M52.0898 4.53247H56.587L60.6099 19.3993L64.8895 4.53247H68.6371L73.2785 19.101L77.1413 4.53247H81.2637L75.181 26.0029H71.3036L66.5842 11.7705L62.2517 26.0029H58.331L52.0898 4.53247Z" fill="#E6E6E6"/>
<path fill-rule="evenodd" clip-rule="evenodd" d="M87.9038 26.3821C86.3374 26.3917 84.925 26.0416 83.666 25.3319C82.417 24.6123 81.432 23.6156 80.7112 22.3418C80.0001 21.0679 79.6445 19.6142 79.6445 17.9806C79.6445 16.3957 80.0098 14.9613 80.74 13.6778C81.4703 12.3942 82.4602 11.3927 83.7093 10.6731C84.9585 9.95354 86.3518 9.59375 87.8894 9.59375C89.6191 9.59375 91.1326 9.98272 92.4298 10.7606C93.7367 11.5385 94.712 12.6422 95.3558 14.0716C96.0092 15.4913 96.2447 17.1201 96.0621 18.9578H83.7154C83.75 19.69 83.9305 20.3562 84.2571 20.9561C84.6222 21.6173 85.1316 22.1327 85.7849 22.5022C86.4383 22.8717 87.1687 23.0564 87.9759 23.0564C88.5908 23.0468 89.1626 22.9398 89.6911 22.7356C90.2196 22.5217 90.6664 22.2348 91.0317 21.8751C91.4063 21.5152 91.6706 21.1068 91.8243 20.6499H95.9468C95.697 21.7681 95.1973 22.7648 94.4477 23.6399C93.6982 24.5053 92.7564 25.1811 91.6226 25.6674C90.4886 26.1535 89.249 26.3917 87.9038 26.3821ZM84.2715 14.9468C84.0411 15.3531 83.8817 15.7907 83.7929 16.2595H91.9771C91.9177 15.6672 91.7371 15.1276 91.4351 14.6405C91.0893 14.0668 90.6185 13.6243 90.0226 13.3132C89.4268 12.9923 88.7542 12.8318 88.0047 12.8318C87.2072 12.8318 86.4817 13.0166 85.8282 13.3861C85.1748 13.7556 84.6558 14.2758 84.2715 14.9468Z" fill="#E6E6E6"/>
<path d="M117.263 9.92933C117.263 8.62632 117.557 7.46918 118.143 6.4579C118.729 5.43689 119.55 4.64439 120.608 4.08041C121.674 3.50669 122.919 3.21012 124.341 3.19067V6.73502C123.678 6.74474 123.111 6.88575 122.64 7.15802C122.179 7.42056 121.823 7.80465 121.573 8.3103C121.343 8.7758 121.219 9.31547 121.201 9.92933H124.254V13.2986H121.198V26.003H117.263V13.2986H114.727V9.92933H117.263Z" fill="#E6E6E6"/>
<path fill-rule="evenodd" clip-rule="evenodd" d="M139.838 26.3529C138.233 26.3529 136.797 25.9978 135.528 25.2881C134.269 24.5685 133.28 23.5766 132.559 22.3126C131.848 21.0387 131.492 19.5948 131.492 17.9805C131.492 16.3567 131.848 14.9078 132.559 13.634C133.28 12.3504 134.269 11.3537 135.528 10.6439C136.797 9.93402 138.233 9.5791 139.838 9.5791C141.452 9.5791 142.894 9.93402 144.162 10.6439C145.44 11.3537 146.435 12.3455 147.146 13.6194C147.857 14.8932 148.217 16.3469 148.227 17.9805C148.217 19.5948 147.857 21.0387 147.146 22.3126C146.444 23.5766 145.455 24.5685 144.177 25.2881C142.899 25.9978 141.452 26.3529 139.838 26.3529ZM139.838 22.6918C140.684 22.6918 141.433 22.4973 142.087 22.1083C142.74 21.7097 143.244 21.1553 143.6 20.4455C143.956 19.726 144.133 18.9044 144.133 17.9805C144.133 17.0471 143.956 16.2205 143.6 15.5009C143.244 14.7814 142.74 14.2271 142.087 13.8382C141.433 13.4395 140.684 13.2402 139.838 13.2402C139.002 13.2402 138.257 13.4395 137.604 13.8382C136.96 14.2271 136.46 14.7814 136.105 15.5009C135.749 16.2205 135.576 17.0471 135.586 17.9805C135.586 18.9044 135.764 19.726 136.119 20.4455C136.484 21.1553 136.984 21.7097 137.618 22.1083C138.262 22.4973 139.002 22.6918 139.838 22.6918Z" fill="#E6E6E6"/>
<path d="M152.479 9.9292H148.098L152.84 26.0028H156.674L159.793 15.7366L163.161 26.0028H166.937L171.693 9.9292H167.73L165.032 19.934L162.051 9.9292H158.216L155.249 20.1544L152.479 9.9292Z" fill="#E6E6E6"/>
</g>
<defs>
<clipPath id="clip0_499_992">
<rect width="171" height="29" fill="white" transform="translate(0.691406 0.23291)"/>
</clipPath>
</defs>
</svg>
