<svg width="28" height="27" viewBox="0 0 28 27" fill="none" xmlns="http://www.w3.org/2000/svg">
<path d="M0.140625 3.39125C0.140625 2.65873 0.431618 1.95621 0.949589 1.43824C1.46756 0.920265 2.17008 0.629272 2.9026 0.629272H24.9984C25.7309 0.629272 26.4334 0.920265 26.9514 1.43824C27.4694 1.95621 27.7604 2.65873 27.7604 3.39125V18.5821C27.7604 19.3146 27.4694 20.0172 26.9514 20.5351C26.4334 21.0531 25.7309 21.3441 24.9984 21.3441H15.3315V24.1061H19.4745C19.8407 24.1061 20.192 24.2516 20.451 24.5105C20.7099 24.7695 20.8554 25.1208 20.8554 25.4871C20.8554 25.8533 20.7099 26.2046 20.451 26.4636C20.192 26.7225 19.8407 26.868 19.4745 26.868H8.42655C8.06029 26.868 7.70903 26.7225 7.45005 26.4636C7.19106 26.2046 7.04556 25.8533 7.04556 25.4871C7.04556 25.1208 7.19106 24.7695 7.45005 24.5105C7.70903 24.2516 8.06029 24.1061 8.42655 24.1061H12.5695V21.3441H2.9026C2.17008 21.3441 1.46756 21.0531 0.949589 20.5351C0.431618 20.0172 0.140625 19.3146 0.140625 18.5821V3.39125ZM24.9984 18.5821V3.39125H2.9026V18.5821H24.9984Z" fill="#C1C1C1"/>
</svg>
